<svg xmlns="http://www.w3.org/2000/svg" xmlns:svgjs="http://svgjs.com/svgjs" xmlns:xlink="http://www.w3.org/1999/xlink" width="288" height="288"><svg xmlns="http://www.w3.org/2000/svg" width="288" height="288" enable-background="new 0 0 432.101 432.101" viewBox="0 0 432.101 432.101"><path fill="none" d="M150.396 301.248c30.958 0 56.145-31.063 56.145-69.244 0-38.18-25.188-69.242-56.146-69.242-30.958 0-56.145 31.063-56.145 69.242C94.25 270.185 119.438 301.248 150.396 301.248zM383.876 57.547c-15.654-15.654-36.469-24.275-58.607-24.275-22.139 0-42.951 8.621-58.605 24.275-15.655 15.654-24.276 36.469-24.276 58.607s8.621 42.951 24.276 58.605c15.654 15.656 36.467 24.277 58.605 24.277 22.139 0 42.953-8.621 58.607-24.277C416.191 142.445 416.191 89.862 383.876 57.547zM358.94 127.685h-23.075v23.076c0 6.629-5.373 12-12 12-6.627 0-12-5.371-12-12v-23.076H288.79c-6.627 0-12-5.371-12-12 0-6.627 5.373-12 12-12h23.075V80.611c0-6.628 5.373-12 12-12 6.627 0 12 5.372 12 12v23.074h23.075c6.627 0 12 5.373 12 12C370.94 122.314 365.567 127.685 358.94 127.685z"/><path d="M241.341,351.637c-24.134-17.017-56.432-26.389-90.944-26.389s-66.812,9.371-90.946,26.389
			c-18.67,13.164-30.489,29.598-34.195,47.193H70.25v-21.432c0-6.627,5.373-12,12-12c6.627,0,12,5.373,12,12v21.432h112.291v-21.432
			c0-6.627,5.373-12,12-12c6.627,0,12,5.373,12,12v21.432h44.994C271.83,381.232,260.011,364.801,241.341,351.637z" class="color73d0f4 svgShape"/><path d="M400.847,40.576c-20.188-20.188-47.028-31.305-75.578-31.305c-28.549,0-55.39,11.117-75.576,31.305
			c-20.188,20.188-31.306,47.027-31.306,75.578c0,28.549,11.118,55.389,31.306,75.576c20.187,20.188,47.027,31.307,75.576,31.307
			c28.55,0,55.391-11.119,75.578-31.307C442.52,150.057,442.52,82.25,400.847,40.576z M383.876,174.76
			c-15.654,15.656-36.469,24.277-58.607,24.277c-22.139,0-42.951-8.621-58.605-24.277c-15.655-15.654-24.276-36.467-24.276-58.605
			s8.621-42.953,24.276-58.607c15.654-15.654,36.467-24.275,58.605-24.275c22.139,0,42.953,8.621,58.607,24.275
			C416.191,89.862,416.191,142.445,383.876,174.76z" class="color3d6889 svgShape"/><path d="M358.94 103.685h-23.075V80.611c0-6.628-5.373-12-12-12-6.627 0-12 5.372-12 12v23.074H288.79c-6.627 0-12 5.373-12 12 0 6.629 5.373 12 12 12h23.075v23.076c0 6.629 5.373 12 12 12 6.627 0 12-5.371 12-12v-23.076h23.075c6.627 0 12-5.371 12-12C370.94 109.058 365.567 103.685 358.94 103.685zM255.171 332.021c-16.382-11.551-35.839-20.074-57.013-25.188 19.639-17.01 32.383-44.221 32.383-74.83 0-51.414-35.953-93.242-80.146-93.242-44.191 0-80.145 41.828-80.145 93.242 0 30.609 12.744 57.82 32.383 74.832-21.173 5.111-40.63 13.635-57.012 25.186C16.202 352.764 0 380.752 0 410.83c0 6.627 5.373 12 12 12h276.79c6.628 0 12-5.373 12-12C300.79 380.752 284.589 352.764 255.171 332.021zM230.541 398.83v-21.432c0-6.627-5.373-12-12-12-6.627 0-12 5.373-12 12v21.432H94.25v-21.432c0-6.627-5.373-12-12-12-6.627 0-12 5.373-12 12v21.432H25.255c3.706-17.596 15.525-34.029 34.195-47.193 24.135-17.017 56.434-26.389 90.946-26.389s66.811 9.371 90.944 26.389c18.67 13.164 30.489 29.596 34.194 47.193H230.541zM94.25 232.004c0-38.18 25.187-69.242 56.145-69.242 30.959 0 56.146 31.063 56.146 69.242 0 38.182-25.187 69.244-56.145 69.244C119.438 301.248 94.25 270.185 94.25 232.004z" class="color3d6889 svgShape"/></svg></svg>