<svg id="SvgjsSvg1020" width="288" height="288" xmlns="http://www.w3.org/2000/svg" version="1.1" xmlns:xlink="http://www.w3.org/1999/xlink" xmlns:svgjs="http://svgjs.com/svgjs"><defs id="SvgjsDefs1021"></defs><g id="SvgjsG1022"><svg xmlns="http://www.w3.org/2000/svg" enable-background="new 0 0 512 512" viewBox="0 0 512 512" width="288" height="288"><path fill="#2d5059" d="M119.5 267.2H98c-13.7 0-24.9-11.1-24.9-24.7 0-4.1-3.4-7.5-7.5-7.5s-7.5 3.4-7.5 7.5c0 21.9 17.9 39.7 39.9 39.7h21.5c4.1 0 7.5-3.4 7.5-7.5S123.7 267.2 119.5 267.2zM190 322.7h-64.1c-21.2 0-38.4 17.1-38.4 38.2 0 4.1 3.4 7.5 7.5 7.5s7.5-3.4 7.5-7.5c0-12.8 10.5-23.2 23.4-23.2H190c4.1 0 7.5-3.4 7.5-7.5S194.2 322.7 190 322.7zM251.1 322.7H220c-4.1 0-7.5 3.4-7.5 7.5s3.4 7.5 7.5 7.5h31.1c4.1 0 7.5-3.4 7.5-7.5S255.3 322.7 251.1 322.7zM198.4 177c-4.1 0-7.5 3.4-7.5 7.5 0 21.4-17.6 38.9-39.1 38.9-4.1 0-7.5 3.4-7.5 7.5s3.4 7.5 7.5 7.5c29.8 0 54.1-24.2 54.1-53.9C205.9 180.3 202.5 177 198.4 177zM184.6 63.6C166.7 62.4 151.1 76 150 93.9c-.3 4.1 2.9 7.7 7 8 .2 0 .3 0 .5 0 3.9 0 7.2-3 7.5-7 .6-9.6 9-16.9 18.7-16.3 4.1.3 7.7-2.9 8-7C191.8 67.4 188.7 63.9 184.6 63.6zM159.3 356.1c-4.1 0-7.5 3.4-7.5 7.5s3.4 7.5 7.5 7.5c12.4 0 22.5 10 22.5 22.3s-10.1 22.3-22.5 22.3c-4.1 0-7.5 3.4-7.5 7.5s3.4 7.5 7.5 7.5c20.7 0 37.5-16.7 37.5-37.3C196.8 372.8 180 356.1 159.3 356.1zM236.1 179.5c-4.1 0-7.5 3.4-7.5 7.5s3.4 7.5 7.5 7.5c9.9 0 18 8 18 17.9s-8.1 17.9-18 17.9c-4.1 0-7.5 3.4-7.5 7.5s3.4 7.5 7.5 7.5c18.2 0 33-14.8 33-32.9S254.3 179.5 236.1 179.5zM104 131.8c-4.1 0-7.5 3.4-7.5 7.5s3.4 7.5 7.5 7.5c17.1 0 31 13.8 31 30.8s-13.9 30.8-31 30.8c-4.1 0-7.5 3.4-7.5 7.5s3.4 7.5 7.5 7.5c25.4 0 46-20.6 46-45.8S129.3 131.8 104 131.8zM456.6 131.5c-14.1 0-25.6 11.4-25.6 25.5 0 14 11.5 25.5 25.6 25.5s25.6-11.4 25.6-25.5C482.1 142.9 470.7 131.5 456.6 131.5zM456.6 167.4c-5.8 0-10.6-4.7-10.6-10.5s4.7-10.5 10.6-10.5c5.8 0 10.6 4.7 10.6 10.5C467.1 162.7 462.4 167.4 456.6 167.4zM481.6 323.4c-14.1 0-25.6 11.4-25.6 25.5s11.5 25.5 25.6 25.5 25.6-11.4 25.6-25.5S495.7 323.4 481.6 323.4zM481.6 359.4c-5.8 0-10.6-4.7-10.6-10.5s4.7-10.5 10.6-10.5 10.6 4.7 10.6 10.5C492.2 354.7 487.4 359.4 481.6 359.4zM465.9 233.5c-4.3 0-8.4 1.1-12 3L439.3 222c-2.9-2.9-7.7-2.9-10.6 0s-2.9 7.7 0 10.6l14.6 14.5c-1.9 3.6-3 7.6-3 11.9 0 14 11.5 25.5 25.6 25.5s25.6-11.4 25.6-25.5C491.5 245 480 233.5 465.9 233.5zM465.9 269.5c-5.8 0-10.6-4.7-10.6-10.5 0-5.8 4.7-10.5 10.6-10.5 5.8 0 10.6 4.7 10.6 10.5C476.5 264.8 471.7 269.5 465.9 269.5zM449 401.7c-14.1 0-25.6 11.4-25.6 25.5s11.5 25.5 25.6 25.5 25.6-11.4 25.6-25.5S463.1 401.7 449 401.7zM449 437.7c-5.8 0-10.6-4.7-10.6-10.5s4.7-10.5 10.6-10.5c5.8 0 10.6 4.7 10.6 10.5S454.8 437.7 449 437.7z" class="colorfff svgShape"></path><path fill="#2d5059" d="M361.2,140.9c4.8,0,10.5-2.3,13.8-5.7l29-28.8c2.9,1.2,6.1,1.8,9.4,1.8c14.1,0,25.6-11.4,25.6-25.5
			c0-14-11.5-25.5-25.6-25.5s-25.6,11.4-25.6,25.5c0,5.3,1.6,10.2,4.4,14.3l-27.8,27.6c-0.6,0.6-2.4,1.3-3.3,1.3h-61.9V76.3h17.4
			c3.2,10.4,13,18,24.4,18c14.1,0,25.6-11.4,25.6-25.5c0-14-11.5-25.5-25.6-25.5c-11.5,0-21.2,7.6-24.4,18h-17.4v-1.1
			C299.3,27,272.2,0,238.9,0c-23.8,0-45.2,13.9-54.9,35.1c-1.5-0.1-3-0.2-4.5-0.2c-34.6,0-62.9,27.6-63.7,61.9c-3-0.4-6-0.6-9.1-0.6
			c-35.1,0-63.7,28.5-63.7,63.4c0,7.7,1.3,15.1,4,22.2C20.8,197.4,4.8,225.2,4.8,256c0,16.5,4.7,32.6,13.6,46.5
			c7.3,11.4,17.2,20.9,28.9,27.8c-2.8,7.2-4.3,15-4.3,22.8c0,15.4,5.6,30.3,15.9,41.9c2.7,3.1,7.5,3.4,10.6,0.7
			c3.1-2.7,3.4-7.5,0.7-10.6c-7.8-8.8-12.1-20.2-12.1-32c0-7.9,1.9-15.5,5.6-22.5c4.4-8.4,11.2-15.4,19.9-20.1c3.6-2,5-6.5,3-10.2
			c-2-3.6-6.5-5-10.2-3c-9,4.9-16.4,11.7-22,19.7c-21.4-12.9-34.5-35.7-34.5-61c0-27.1,15-51.3,39.2-63.6c0,0,14-7.8,32.6-7.8
			c4.1,0,7.5-3.4,7.5-7.5s-3.4-7.5-7.5-7.5c-10.9,0-21.3,2-30.9,5.7c-1.7-5-2.6-10.2-2.6-15.6c0-26.7,21.9-48.4,48.7-48.4
			c5,0,10,0.8,14.8,2.3c2.5,0.8,5.2,0.2,7.1-1.4c2-1.7,2.9-4.2,2.6-6.8c-0.3-2.3-0.5-4.7-0.5-6.9c0-26.7,21.9-48.4,48.7-48.4
			c2.6,0,5.3,0.2,8,0.7c23.1,3.8,40.7,23.8,40.7,47.8c0,4.1,3.4,7.5,7.5,7.5s7.5-3.4,7.5-7.5c0-28.1-18.5-52-43.9-60.3
			c7.9-14.1,23-23.1,39.6-23.1c25,0,45.4,20.3,45.4,45.2V61H270c-4.1,0-7.5,3.4-7.5,7.5s3.4,7.5,7.5,7.5h14.4v49.9h-60.7
			c-13.7,0-24.9-11.1-24.9-24.7c0-4.1-3.4-7.5-7.5-7.5s-7.5,3.4-7.5,7.5c0,21.9,17.9,39.7,39.9,39.7h60.7v126.3H162.7
			c-4.1,0-7.5,3.4-7.5,7.5s3.4,7.5,7.5,7.5h121.7v103h-23.2c-21.2,0-38.4,17.1-38.4,38.2c0,4.1,3.4,7.5,7.5,7.5s7.5-3.4,7.5-7.5
			c0-12.8,10.5-23.2,23.4-23.2h23.2v51.7c0,1.2-0.1,2.3-0.1,3.5H270c-4.1,0-7.5,3.4-7.5,7.5s3.4,7.5,7.5,7.5h10.4
			c-7.1,15.7-23,26.7-41.4,26.7c-16.5,0-31.5-8.9-39.5-22.9c9.1-3,17.4-7.9,24.4-14.7c3-2.9,3.1-7.6,0.2-10.6
			c-2.9-3-7.6-3.1-10.6-0.2c-7.2,6.9-16.1,11.4-25.8,13c-2.7,0.5-5.5,0.7-8.1,0.7c-26.9,0-48.7-21.7-48.7-48.4c0-0.7,0-1.4,0.1-2.1
			c6.1-2.5,11.7-5.8,16.8-10.1c3.2-2.7,3.6-7.4,0.9-10.6s-7.3-3.5-10.6-1c-15,11.8-29.6,11.6-35.4,11.2c-4.1-0.4-7.8,2.7-8.1,6.9
			c-0.3,4.1,2.7,7.8,6.9,8.1c4.8,0.4,9.7,0.3,14.4-0.4c1.1,34.1,29.2,61.4,63.7,61.4c1.5,0,3-0.1,4.6-0.2
			c9.8,21.1,31.1,34.9,54.8,34.9c33.3,0,60.4-27,60.4-60.2v-16.6h39.8c0.8,0,2.7,0.8,3.3,1.3l17.9,17.8c-2.4,3.9-3.8,8.5-3.8,13.4
			c0,14,11.5,25.5,25.6,25.5s25.6-11.4,25.6-25.5s-11.5-25.5-25.6-25.5c-3.7,0-7.2,0.8-10.4,2.2L352.9,426
			c-3.4-3.4-9.1-5.7-13.8-5.7h-39.8v-40.1h65.2c3.2,10.4,13,18,24.4,18c14.1,0,25.6-11.4,25.6-25.5s-11.5-25.5-25.6-25.5
			c-11.5,0-21.2,7.6-24.4,18h-65.2V315h78c3.2,10.4,13,18,24.4,18c14.1,0,25.6-11.4,25.6-25.5S415.9,282,401.8,282
			c-11.5,0-21.2,7.6-24.4,18h-78v-54.6H318c3.2,10.4,13,18,24.4,18c14.1,0,25.6-11.4,25.6-25.5c0-14-11.5-25.5-25.6-25.5
			c-11.5,0-21.2,7.6-24.4,18h-18.6v-43.3H381c0.8,0,2.7,0.8,3.3,1.3l15.4,15.3c1.5,1.5,3.4,2.2,5.3,2.2s3.9-0.7,5.3-2.2
			c2.9-2.9,2.9-7.7,0-10.6l-15.4-15.3c-3.4-3.4-9.1-5.7-13.8-5.7h-81.7V141L361.2,140.9L361.2,140.9z M413.4,72.2
			c5.8,0,10.6,4.7,10.6,10.5s-4.7,10.5-10.6,10.5s-10.6-4.7-10.6-10.5C402.9,76.9,407.6,72.2,413.4,72.2z M341.2,58.3
			c5.8,0,10.6,4.7,10.6,10.5s-4.7,10.5-10.6,10.5c-5.8,0-10.6-4.7-10.6-10.5S335.3,58.3,341.2,58.3z M382,457.3
			c5.8,0,10.6,4.7,10.6,10.5s-4.7,10.5-10.6,10.5c-5.8,0-10.6-4.7-10.6-10.5S376.1,457.3,382,457.3z M389,362.2
			c5.8,0,10.6,4.7,10.6,10.5s-4.7,10.5-10.6,10.5s-10.6-4.7-10.6-10.5C378.4,366.9,383.1,362.2,389,362.2z M401.8,297
			c5.8,0,10.6,4.7,10.6,10.5s-4.7,10.5-10.6,10.5c-5.8,0-10.6-4.7-10.6-10.5C391.2,301.7,396,297,401.8,297z M342.3,227.4
			c5.8,0,10.6,4.7,10.6,10.5s-4.7,10.5-10.6,10.5c-5.8,0-10.6-4.7-10.6-10.5C331.8,232.1,336.5,227.4,342.3,227.4z" class="colorfff svgShape"></path></svg></g></svg>