<svg width="16" height="16" viewBox="0 0 16 16" fill="none" xmlns="http://www.w3.org/2000/svg">
<rect x="1" y="2" width="14" height="13" rx="3" stroke="#575B66" stroke-width="2"/>
<line x1="15" y1="6" x2="1" y2="6" stroke="#575B66" stroke-width="2"/>
<line x1="4" y1="3" x2="4" y2="1" stroke="#575B66" stroke-width="2" stroke-linecap="round" stroke-linejoin="round"/>
<line x1="8" y1="3" x2="8" y2="1" stroke="#575B66" stroke-width="2" stroke-linecap="round" stroke-linejoin="round"/>
<line x1="12" y1="3" x2="12" y2="1" stroke="#575B66" stroke-width="2" stroke-linecap="round" stroke-linejoin="round"/>
<path d="M4.21981 10.4852L11.7802 10.4852" stroke="#575B66" stroke-width="2" stroke-linecap="round"/>
<path d="M6.27693 9.84236C6.66746 9.45184 6.66746 8.81867 6.27693 8.42815C5.88641 8.03762 5.25324 8.03762 4.86272 8.42815L6.27693 9.84236ZM4.86272 12.5425C5.25324 12.933 5.88641 12.933 6.27693 12.5425C6.66746 12.152 6.66746 11.5188 6.27693 11.1283L4.86272 12.5425ZM4.21976 10.4853L3.51265 9.77821C3.32511 9.96575 3.21976 10.2201 3.21976 10.4853C3.21976 10.7505 3.32511 11.0049 3.51265 11.1924L4.21976 10.4853ZM4.86272 8.42815L3.51265 9.77821L4.92686 11.1924L6.27693 9.84236L4.86272 8.42815ZM3.51265 11.1924L4.86272 12.5425L6.27693 11.1283L4.92686 9.77821L3.51265 11.1924Z" fill="#575B66"/>
<path d="M9.72307 11.1283C9.33254 11.5189 9.33254 12.152 9.72307 12.5426C10.1136 12.9331 10.7468 12.9331 11.1373 12.5426L9.72307 11.1283ZM11.1373 8.42821C10.7468 8.03768 10.1136 8.03768 9.72307 8.42821C9.33254 8.81873 9.33254 9.4519 9.72307 9.84242L11.1373 8.42821ZM11.7802 10.4854L12.4873 11.1925C12.6749 11.005 12.7802 10.7506 12.7802 10.4854C12.7802 10.2202 12.6749 9.96581 12.4873 9.77827L11.7802 10.4854ZM11.1373 12.5426L12.4873 11.1925L11.0731 9.77828L9.72307 11.1283L11.1373 12.5426ZM12.4873 9.77827L11.1373 8.42821L9.72307 9.84242L11.0731 11.1925L12.4873 9.77827Z" fill="#575B66"/>
</svg>
