<svg id="SvgjsSvg1001" width="288" height="288" xmlns="http://www.w3.org/2000/svg" version="1.1" xmlns:xlink="http://www.w3.org/1999/xlink" xmlns:svgjs="http://svgjs.com/svgjs"><defs id="SvgjsDefs1002"></defs><g id="SvgjsG1008"><svg xmlns="http://www.w3.org/2000/svg" enable-background="new 0 0 512 512" viewBox="0 0 512 512" width="288" height="288"><path fill="#ffffff" d="M427.7,351.3h-26.2v-84.8c4.3-2.2,7.3-6.8,7.3-12v-18.2c0-7.4-6.1-13.5-13.5-13.5h-11.5
		c-4.2-24.5-12.5-47.7-24.2-67.6c-2.1-3.6-6.7-4.8-10.3-2.7c-3.6,2.1-4.8,6.7-2.7,10.3c10.4,17.7,17.9,38.3,21.9,60H143.3
		C155.7,155,200,106.1,251.7,103.5c0,0,0,0,0,0c29-1.4,54.8,11.5,74.9,32.5c2.9,3,7.6,3.1,10.6,0.2c3-2.9,3.1-7.6,0.2-10.6
		C321,108.5,302.2,97,282,91.8V73.3c0-8.2-6.7-14.9-14.9-14.9h-3.6V7.5c0-4.1-3.4-7.5-7.5-7.5s-7.5,3.4-7.5,7.5v50.9h-3.6
		c-8.2,0-14.9,6.7-14.9,14.9v18.6c-50,13.2-90.5,64-101.9,131h-11.5c-7.4,0-13.5,6.1-13.5,13.5v18.2c0,5.2,3,9.7,7.3,12v84.8H84.3
		c-7.4,0-13.5,6.1-13.5,13.5V383c0,4.9,2.6,9.1,6.5,11.5v102.2c0,8.4,6.8,15.2,15.2,15.2h210.8c0,0,0,0,0,0c35,0-6.8,0,116.2,0
		c8.4,0,15.2-6.8,15.2-15.2v-33.3c0-4.1-3.4-7.5-7.5-7.5s-7.5,3.4-7.5,7.5v33.3c0,0.1-0.1,0.2-0.2,0.2h-17.8v-67.3
		c0-7.3-6-13.3-13.3-13.3h-17.5c-7.3,0-13.3,6-13.3,13.3V497h-17.8v-67.3c0-7.3-6-13.3-13.3-13.3h-17.5c-7.3,0-13.3,6-13.3,13.3V497
		H278v-67.3c0-7.3-6-13.3-13.3-13.3h-17.5c-7.3,0-13.3,6-13.3,13.3V497h-17.8v-67.3c0-7.3-6-13.3-13.3-13.3h-17.5
		c-7.3,0-13.3,6-13.3,13.3V497h-17.8v-67.3c0-7.3-6-13.3-13.3-13.3h-17.5c-7.3,0-13.3,6-13.3,13.3V497H92.5c-0.1,0-0.2-0.1-0.2-0.2
		V396.5h327.5v32c0,4.1,3.4,7.5,7.5,7.5s7.5-3.4,7.5-7.5v-34c3.9-2.4,6.5-6.6,6.5-11.5v-18.2C441.2,357.4,435.2,351.3,427.7,351.3
		L427.7,351.3z M245,73.4h22V89c-7.2-0.8-14.5-0.8-22,0V73.4z M372.7,431.5h14V497h-14V431.5z M310.8,431.5h14V497h-14V431.5z
		 M249,431.5h14V497h-14V431.5z M187.1,431.5h14V497h-14V431.5z M125.3,431.5h14V497h-14L125.3,431.5z M118.1,237.8h275.7V253H118.1
		V237.8z M357.6,288h-17.7c-7.3,0-13.2,5.9-13.2,13.2v50.2h-17.8v-50.2c0-7.3-5.9-13.2-13.2-13.2h-17.7c-7.3,0-13.2,5.9-13.2,13.2
		l0,50.2h-17.8v-50.2c0-7.3-5.9-13.2-13.2-13.2h-17.7c-7.3,0-13.2,5.9-13.2,13.2v50.2h-17.8v-50.2c0-7.3-5.9-13.2-13.2-13.2h-17.7
		c-7.3,0-13.2,5.9-13.2,13.2v50.2h-15.8V268h261.1v83.3h-15.8v-50.2C370.8,293.9,364.9,288,357.6,288L357.6,288z M355.8,303v48.4
		h-14V303H355.8z M293.9,303v48.4h-14V303H293.9z M232.1,303v48.4h-14V303H232.1z M170.3,303v48.4h-14V303H170.3z M426.2,381.5H85.8
		v-15.2h340.4L426.2,381.5L426.2,381.5z" class="color1d1f26 svgShape"></path></svg></g></svg>