<svg width="8" height="8" viewBox="0 0 8 8" fill="none" xmlns="http://www.w3.org/2000/svg">
<path d="M1.70711 1.79289C1.31658 1.40237 0.683417 1.40237 0.292893 1.79289C-0.0976311 2.18342 -0.0976311 2.81658 0.292893 3.20711L1.70711 1.79289ZM7.70711 3.20711C8.09763 2.81658 8.09763 2.18342 7.70711 1.79289C7.31658 1.40237 6.68342 1.40237 6.29289 1.79289L7.70711 3.20711ZM4 5.5L3.29289 6.20711C3.68342 6.59763 4.31658 6.59763 4.70711 6.20711L4 5.5ZM0.292893 3.20711L3.29289 6.20711L4.70711 4.79289L1.70711 1.79289L0.292893 3.20711ZM4.70711 6.20711L7.70711 3.20711L6.29289 1.79289L3.29289 4.79289L4.70711 6.20711Z" fill="#575B66"/>
</svg>
