<?xml version="1.0" encoding="utf-8"?>
<!-- Generator: Adobe Illustrator 25.3.1, SVG Export Plug-In . SVG Version: 6.00 Build 0)  -->
<svg version="1.1" id="Capa_1" xmlns="http://www.w3.org/2000/svg" xmlns:xlink="http://www.w3.org/1999/xlink" x="0px" y="0px"
	 viewBox="0 0 512 512" style="enable-background:new 0 0 512 512;" xml:space="preserve">
<style type="text/css">
	.st0{fill:#2D5059;}
</style>
<g>
	<path class="st0" d="M399.7,109.1c-12-31.2-32.7-58-60.1-77.5C310.7,10.9,276.6,0,241,0c-49.5,0-96.5,21.6-128.8,59.2
		c-2.7,3.1-2.3,7.9,0.8,10.6s7.9,2.3,10.6-0.8C153.1,34.7,195.9,15,241,15c65,0,123.6,41.1,145.7,102.3c1.5,4,5.3,6.7,9.6,6.7h0
		c55.5,0,100.6,45.2,100.6,100.7c0,25.9-9.8,50.5-27.5,69.2c-2.8,3-2.7,7.8,0.3,10.6c3,2.8,7.8,2.7,10.6-0.3
		c20.4-21.6,31.7-49.8,31.7-79.6C512,162,461.9,110.8,399.7,109.1L399.7,109.1z"/>
	<path class="st0" d="M263,458v-16c0-4.1-3.4-7.5-7.5-7.5s-7.5,3.4-7.5,7.5v16c-11.5,3.3-20,13.9-20,26.5
		c0,15.2,12.3,27.5,27.5,27.5s27.5-12.3,27.5-27.5C283,471.9,274.5,461.3,263,458z M255.5,497c-6.9,0-12.5-5.6-12.5-12.5
		s5.6-12.5,12.5-12.5s12.5,5.6,12.5,12.5S262.4,497,255.5,497z"/>
	<path class="st0" d="M192.5,386.5c-4.1,0-7.5,3.4-7.5,7.5v40.5c0,3.6-2.9,6.5-6.5,6.5H165c-3.3-11.5-13.9-20-26.5-20
		c-15.2,0-27.5,12.3-27.5,27.5s12.3,27.5,27.5,27.5c12.6,0,23.2-8.5,26.5-20h13.5c11.9,0,21.5-9.6,21.5-21.5V394
		C200,389.9,196.6,386.5,192.5,386.5z M138.5,461c-6.9,0-12.5-5.6-12.5-12.5s5.6-12.5,12.5-12.5s12.5,5.6,12.5,12.5
		S145.4,461,138.5,461z"/>
	<path class="st0" d="M434.5,365c-12.6,0-23.2,8.5-26.5,20h-13.5c-3.6,0-6.5-2.9-6.5-6.5V340c12.1,0,19.2,0,19.6-0.1
		c15-1.4,29.3-5.7,42.6-12.8c3.7-1.9,5.1-6.5,3.1-10.1c-1.9-3.7-6.5-5.1-10.1-3.1c-11.5,6.1-23.9,9.8-36.8,11.1
		c-1.7,0-11.1,0-25.9,0c0,0,0,0,0,0s0,0,0,0c-59.5,0-206.4-0.2-291.8-0.4c-14.3,0-27.8-3.9-39.1-11.2C27.9,299.5,15,275.8,15,250
		c0-36.9,26.3-68.2,62.6-74.4c4.8-0.8,8.3-4.9,8.4-9.8c0.7-24.6,6.9-47.9,18.5-69.4c2-3.6,0.6-8.2-3-10.2c-3.6-2-8.2-0.6-10.2,3
		c-12.1,22.5-18.9,46.8-20.2,72.3C29.7,170.5,0,207.1,0,250c0,30.9,15.5,59.3,41.4,76.1c13.7,8.8,30,13.5,47.2,13.6
		c11.3,0,22.8,0,34.4,0.1v38.8c0,3.6-2.9,6.5-6.5,6.5H103c-3.3-11.5-13.9-20-26.5-20C61.3,365,49,377.3,49,392.5S61.3,420,76.5,420
		c12.6,0,23.2-8.5,26.5-20h13.5c11.9,0,21.5-9.6,21.5-21.5v-38.8c15.7,0,31.4,0,47,0.1V359c0,4.1,3.4,7.5,7.5,7.5s7.5-3.4,7.5-7.5
		v-19.2c16.4,0,32.5,0,48,0.1V407c0,4.1,3.4,7.5,7.5,7.5c4.1,0,7.5-3.4,7.5-7.5v-67.1c16.9,0,33.1,0,48,0.1v94.5
		c0,11.9,9.6,21.5,21.5,21.5H346c3.3,11.5,13.9,20,26.5,20c15.2,0,27.5-12.3,27.5-27.5S387.7,421,372.5,421
		c-12.6,0-23.2,8.5-26.5,20h-13.5c-3.6,0-6.5-2.9-6.5-6.5V340c18.2,0,34.1,0,47,0h0v38.5c0,11.9,9.6,21.5,21.5,21.5H408
		c3.3,11.5,13.9,20,26.5,20c15.2,0,27.5-12.3,27.5-27.5S449.7,365,434.5,365L434.5,365z M76.5,405c-6.9,0-12.5-5.6-12.5-12.5
		S69.6,380,76.5,380S89,385.6,89,392.5S83.4,405,76.5,405z M372.5,436c6.9,0,12.5,5.6,12.5,12.5s-5.6,12.5-12.5,12.5
		s-12.5-5.6-12.5-12.5S365.6,436,372.5,436z M434.5,405c-6.9,0-12.5-5.6-12.5-12.5s5.6-12.5,12.5-12.5s12.5,5.6,12.5,12.5
		S441.4,405,434.5,405z"/>
</g>
</svg>
