<svg xmlns="http://www.w3.org/2000/svg" xmlns:svgjs="http://svgjs.com/svgjs" xmlns:xlink="http://www.w3.org/1999/xlink" width="288" height="288"><svg xmlns="http://www.w3.org/2000/svg" width="288" height="288" enable-background="new 0 0 98.829 98.829" viewBox="0 0 98.829 98.829"><path fill="#2d5059" d="M96.76 41.603C91.511 22.831 78.562 9.204 65.975 9.204c-1.011 0-2.021.088-3.005.262-.558.098-1.046.426-1.348.902-.301.479-.386 1.061-.233 1.605l2.591 9.268c.25.895 1.113 1.5 2.01 1.459l.206-.004c4.668 0 13.199 6.996 17.548 22.545.172.617.335 1.248.492 1.906-4.882-2.416-10.706-2.975-15.98-1.506C56.358 48.97 49.388 61.356 52.714 73.252c2.696 9.639 11.563 16.373 21.563 16.373 2.037 0 4.071-.281 6.046-.834 7.846-2.193 13.745-8.707 16.611-18.338C99.521 61.764 99.456 51.249 96.76 41.603zM14.088 9.206c-1.009 0-2.02.086-3.003.26-.557.096-1.046.426-1.347.902-.301.479-.386 1.061-.234 1.605l2.592 9.268c.25.895 1.097 1.5 2.01 1.459l.204-.004c4.668 0 13.2 6.996 17.549 22.545.173.621.336 1.252.492 1.906-4.884-2.416-10.706-2.975-15.98-1.506C4.475 48.97-2.497 61.356.831 73.252c2.696 9.639 11.563 16.373 21.563 16.373 2.037 0 4.071-.281 6.047-.834 7.845-2.193 13.744-8.707 16.611-18.338 2.586-8.689 2.522-19.205-.175-28.852C39.625 22.831 26.678 9.206 14.088 9.206z" class="color000 svgShape"/></svg></svg>