<svg width="24" height="24" viewBox="0 0 24 24" fill="none" xmlns="http://www.w3.org/2000/svg">
<path d="M11.3079 3.65071L12 4.31421L12.6921 3.65071C14.2501 2.15698 16.8622 1.60405 19.0891 2.29296C20.182 2.63109 21.1488 3.25937 21.8438 4.18748C22.5355 5.11127 23 6.38813 23 8.09773C23 10.8137 21.2125 13.6391 18.8649 16.1353C16.5531 18.5937 13.8751 20.5473 12.4542 21.5105C12.1739 21.7005 11.8261 21.7005 11.5457 21.5105C10.1249 20.5473 7.44694 18.5937 5.13505 16.1354C2.78749 13.6391 1 10.8137 1 8.09774C1 6.38813 1.46448 5.11127 2.15623 4.18747C2.8512 3.25936 3.81797 2.63108 4.91093 2.29296C7.13779 1.60404 9.74993 2.15698 11.3079 3.65071Z" stroke="#1D1F26" stroke-width="2"/>
<line x1="2" y1="9" x2="18" y2="9" stroke="#1D1F26" stroke-width="2" stroke-linecap="round"/>
<line x1="3" y1="13" x2="15" y2="13" stroke="#1D1F26" stroke-width="2" stroke-linecap="round"/>
<line x1="6" y1="17" x2="12" y2="17" stroke="#1D1F26" stroke-width="2" stroke-linecap="round"/>
</svg>
