<svg width="16" height="16" viewBox="0 0 16 16" fill="none" xmlns="http://www.w3.org/2000/svg">
<path d="M1.74823 12.3732C2.11394 11.2558 3.1565 10.5 4.33227 10.5H7.66773C8.8435 10.5 9.88606 11.2558 10.2518 12.3732C10.4336 12.9289 10.0196 13.5 9.43495 13.5H2.56505C1.9804 13.5 1.56638 12.9289 1.74823 12.3732Z" stroke="#575B66" stroke-width="2" stroke-linecap="round" stroke-linejoin="round"/>
<circle cx="6" cy="6" r="2" stroke="#575B66" stroke-width="2"/>
<path d="M15.0002 6C15.5524 6 16.0002 5.55229 16.0002 5C16.0002 4.44772 15.5524 4 15.0002 4L15.0002 6ZM11 4C10.4477 4 10 4.44772 10 5C10 5.55229 10.4477 6 11 6L11 4ZM11 6L15.0002 6L15.0002 4L11 4L11 6Z" fill="#575B66"/>
<path d="M15 8.5C15.5523 8.5 16 8.05229 16 7.5C16 6.94772 15.5523 6.5 15 6.5L15 8.5ZM11 6.5C10.4477 6.5 10 6.94772 10 7.5C10 8.05229 10.4477 8.5 11 8.5L11 6.5ZM11 8.5L15 8.5L15 6.5L11 6.5L11 8.5Z" fill="#575B66"/>
<path d="M15 11C15.5523 11 16 10.5523 16 10C16 9.44772 15.5523 9 15 9L15 11ZM12.5 9C11.9477 9 11.5 9.44772 11.5 10C11.5 10.5523 11.9477 11 12.5 11L12.5 9ZM12.5 11L15 11L15 9L12.5 9L12.5 11Z" fill="#575B66"/>
</svg>
