<?xml version="1.0" encoding="utf-8"?>
<!-- Generator: Adobe Illustrator 25.2.1, SVG Export Plug-In . SVG Version: 6.00 Build 0)  -->
<svg version="1.1" id="Capa_1" xmlns="http://www.w3.org/2000/svg" xmlns:xlink="http://www.w3.org/1999/xlink" x="0px" y="0px"
	 viewBox="0 0 480 480" style="enable-background:new 0 0 480 480;" xml:space="preserve">
<style type="text/css">
	.st0{fill:#E6EFF1;}
</style>
<g>
	<g>
		<path class="st0" d="M472,80H280c-4.4,0-8,3.6-8,8v72c0,4.4,3.6,8,8,8c0.9,0,1.7-0.1,2.5-0.4l10.1-3.4
			c10.9-3.6,22.7,2.4,26.2,13.3s-2.4,22.7-13.3,26.2c-4.2,1.4-8.7,1.4-12.9,0l-10.1-3.4c-4.2-1.4-8.7,0.9-10.1,5.1
			c-0.3,0.8-0.4,1.7-0.4,2.5v64h-64c-4.4,0-8,3.6-8,8c0,0.9,0.1,1.7,0.4,2.5l3.4,10.1c3.6,10.9-2.4,22.7-13.3,26.2
			c-10.9,3.6-22.7-2.4-26.2-13.3c-1.4-4.2-1.4-8.7,0-12.9l3.4-10.1c1.4-4.2-0.9-8.7-5.1-10.1c-0.8-0.3-1.7-0.4-2.5-0.4H88
			c-4.4,0-8,3.6-8,8v192c0,4.4,3.6,8,8,8h384c4.4,0,8-3.6,8-8V88C480,83.6,476.4,80,472,80z M272.4,397.5c-0.3,0.8-0.4,1.7-0.4,2.5
			v64H96V288h52.9c-6.1,19.4,4.6,40.1,24,46.2c19.4,6.1,40.1-4.6,46.2-24c2.3-7.2,2.3-14.9,0-22.1H272v64c0,4.4,3.6,8,8,8
			c0.9,0,1.7-0.1,2.5-0.4l10.1-3.4c10.9-3.6,22.7,2.4,26.2,13.3s-2.4,22.7-13.3,26.2c-4.2,1.4-8.7,1.4-12.9,0l-10.1-3.4
			C278.3,391,273.8,393.3,272.4,397.5z M464,464H288v-52.9c19.4,6.1,40.1-4.6,46.2-24c6.1-19.4-4.6-40.1-24-46.2
			c-7.2-2.3-14.9-2.3-22.1,0V288h64c4.4,0,8-3.6,8-8c0-0.9-0.1-1.7-0.4-2.5l-3.4-10.1c-3.6-10.9,2.4-22.7,13.3-26.2
			s22.7,2.4,26.2,13.3c1.4,4.2,1.4,8.7,0,12.9l-3.4,10.1c-1.4,4.2,0.9,8.7,5.1,10.1c0.8,0.3,1.7,0.4,2.5,0.4h64L464,464L464,464z
			 M464,272h-52.9c6.1-19.4-4.6-40.1-24-46.2c-19.4-6.1-40.1,4.6-46.2,24c-2.3,7.2-2.3,14.9,0,22.1H288v-52.9
			c11.1,3.6,23.3,1.7,32.7-5.2c16.5-11.8,20.4-34.8,8.6-51.3c-9.3-13.1-26-18.6-41.3-13.6V96h176V272z"/>
	</g>
</g>
<g>
	<g>
		<path class="st0" d="M230.1,68.9c-7.2-2.3-14.9-2.3-22.1,0V8c0-4.4-3.6-8-8-8H8C3.6,0,0,3.6,0,8v192c0,4.4,3.6,8,8,8h60.9
			c-6.1,19.4,4.6,40.1,24,46.2s40.1-4.6,46.2-24c2.3-7.2,2.3-14.9,0-22.1H200c4.4,0,8-3.6,8-8v-60.9c19.4,6.1,40.1-4.6,46.2-24
			C260.3,95.7,249.5,75,230.1,68.9z M225.5,123.8c-4.2,1.4-8.7,1.4-12.9,0l-10.1-3.4c-4.2-1.4-8.7,0.9-10.1,5.1
			c-0.3,0.8-0.4,1.7-0.4,2.5v64h-64c-4.4,0-8,3.6-8,8c0,0.9,0.1,1.7,0.4,2.5l3.4,10.1c3.6,10.9-2.4,22.7-13.3,26.2
			c-10.9,3.6-22.7-2.4-26.2-13.3c-1.4-4.2-1.4-8.7,0-12.9l3.4-10.1c1.4-4.2-0.9-8.7-5.1-10.1c-0.8-0.3-1.7-0.4-2.5-0.4H16V16h176v64
			c0,4.4,3.6,8,8,8c0.9,0,1.7-0.1,2.5-0.4l10.1-3.4c10.9-3.6,22.7,2.4,26.2,13.3C242.4,108.4,236.4,120.2,225.5,123.8z"/>
	</g>
</g>
</svg>
