<?xml version="1.0" encoding="utf-8"?>
<!-- Generator: Adobe Illustrator 25.2.1, SVG Export Plug-In . SVG Version: 6.00 Build 0)  -->
<svg version="1.1" id="Layer_1" xmlns="http://www.w3.org/2000/svg" xmlns:xlink="http://www.w3.org/1999/xlink" x="0px" y="0px"
	 viewBox="0 0 512 512" style="enable-background:new 0 0 512 512;" xml:space="preserve">
<style type="text/css">
	.st0{fill:#E6EFF1;}
</style>
<g>
	<g>
		<g>
			<path class="st0" d="M404.9,500.8H107.1c-14.3,0-25.9-11.6-25.9-25.9v-253c0-14.3,11.6-25.9,25.9-25.9h297.8
				c14.3,0,25.9,11.6,25.9,25.9v253C430.8,489.2,419.2,500.8,404.9,500.8z M107.1,209.4c-6.9,0-12.5,5.6-12.5,12.5v253
				c0,6.9,5.6,12.5,12.5,12.5h297.8c6.9,0,12.5-5.6,12.5-12.5v-253c0-6.9-5.6-12.5-12.5-12.5H107.1z"/>
		</g>
		<g>
			<path class="st0" d="M383.1,209.4c-3.7,0-6.7-3-6.7-6.7V145c0-16.2-3.2-32-9.5-46.8c-6-14.3-14.7-27.2-25.8-38.2
				c-11-11-23.9-19.7-38.2-25.8c-14.8-6.3-30.6-9.5-46.8-9.5c-16.2,0-32,3.2-46.8,9.5c-14.3,6-27.2,14.7-38.2,25.8
				c-11,11-19.7,23.9-25.8,38.2c-6.3,14.8-9.5,30.6-9.5,46.8v57.8c0,3.7-3,6.7-6.7,6.7c-3.7,0-6.7-3-6.7-6.7V145
				c0-18,3.6-35.6,10.5-52.1c6.8-15.9,16.4-30.2,28.6-42.5s26.6-21.9,42.5-28.6c16.5-7,34-10.5,52.1-10.5c18,0,35.6,3.6,52.1,10.5
				c15.9,6.8,30.2,16.4,42.5,28.6s21.9,26.6,28.6,42.5c7,16.5,10.5,34,10.5,52.1v57.8C389.8,206.4,386.8,209.4,383.1,209.4
				L383.1,209.4z"/>
		</g>
		<g>
			<path class="st0" d="M345.7,209.4c-3.7,0-6.7-3-6.7-6.7V145c0-45.7-37.2-82.9-82.9-82.9c-45.7,0-82.9,37.2-82.9,82.9v57.8
				c0,3.7-3,6.7-6.7,6.7s-6.7-3-6.7-6.7V145c0-25.7,10-50,28.2-68.1c18.2-18.2,42.4-28.2,68.1-28.2s50,10,68.1,28.2
				c18.2,18.2,28.2,42.4,28.2,68.1v57.8C352.4,206.4,349.4,209.4,345.7,209.4z"/>
		</g>
		<g>
			<g>
				<g>
					<path class="st0" d="M274,356.6c-2.4,0-4.7-1.2-5.9-3.5c-1.8-3.3-0.6-7.3,2.7-9.1c9.6-5.3,15.6-15.4,15.8-26.3
						c0.2-16.7-13.1-30.5-29.7-30.9c-8.3-0.2-16.1,2.9-22,8.7s-9.2,13.5-9.2,21.8c0,11.1,6,21.4,15.8,26.7c3.3,1.8,4.4,5.9,2.7,9.1
						c-1.8,3.3-5.9,4.4-9.1,2.7c-14-7.7-22.8-22.5-22.8-38.5c0-11.9,4.7-23.1,13.2-31.4c8.5-8.3,19.8-12.8,31.7-12.5
						c24,0.6,43.2,20.5,42.8,44.5c-0.2,15.7-9,30.3-22.8,37.9C276.2,356.4,275.1,356.6,274,356.6z"/>
				</g>
			</g>
			<g>
				<path class="st0" d="M256.1,423.4c-13.6,0-24.6-11-24.6-24.6v-48.9c0-3.7,3-6.7,6.7-6.7s6.7,3,6.7,6.7v48.9
					c0,6.2,5,11.2,11.2,11.2c6.1,0,11.2-5,11.2-11.2v-48.9c0-3.7,3-6.7,6.7-6.7c3.7,0,6.7,3,6.7,6.7v48.9
					C280.7,412.4,269.7,423.4,256.1,423.4z"/>
			</g>
		</g>
	</g>
</g>
</svg>
