<svg width="24" height="24" viewBox="0 0 24 24" fill="none" xmlns="http://www.w3.org/2000/svg">
<path d="M6.5 13.5L16.5 13.5M23 23L3 23C1.89543 23 1 22.1046 1 21L1 4.00003C1 2.89546 1.89543 2.00003 3 2.00003L10 2.00003C11.1046 2.00003 12 2.89546 12 4.00003V4.00003M1.5 20L11.5 20M1.5 7.00003L23 7.00003" stroke="#575b66" stroke-width="2" stroke-linecap="round" stroke-linejoin="round"/>
<path d="M8.6585 10.7526C9.07414 10.3889 9.11626 9.75713 8.75258 9.3415C8.38889 8.92586 7.75713 8.88374 7.3415 9.24742L8.6585 10.7526ZM7.3415 17.7526C7.75713 18.1163 8.38889 18.0741 8.75258 17.6585C9.11626 17.2429 9.07414 16.6111 8.6585 16.2474L7.3415 17.7526ZM4 13.5L3.3415 12.7474C3.12448 12.9373 3 13.2116 3 13.5C3 13.7884 3.12448 14.0627 3.3415 14.2526L4 13.5ZM7.3415 9.24742L3.3415 12.7474L4.6585 14.2526L8.6585 10.7526L7.3415 9.24742ZM3.3415 14.2526L7.3415 17.7526L8.6585 16.2474L4.6585 12.7474L3.3415 14.2526Z" fill="#575b66"/>
</svg>
