<svg width="16" height="14" viewBox="0 0 16 14" fill="none" xmlns="http://www.w3.org/2000/svg">
<path d="M15.0765 2.84828C15.4637 2.45452 15.4585 1.82138 15.0647 1.43412C14.6709 1.04686 14.0378 1.05214 13.6505 1.4459L15.0765 2.84828ZM2.3492 1.4459C1.96195 1.05214 1.3288 1.04686 0.93504 1.43412C0.541275 1.82138 0.536 2.45452 0.923256 2.84829L2.3492 1.4459ZM9.42581 7.16776L8.71284 6.46657L9.42581 7.16776ZM0.923256 2.84829L5.86094 7.86895L7.28689 6.46657L2.3492 1.4459L0.923256 2.84829ZM10.1388 7.86895L15.0765 2.84828L13.6505 1.4459L8.71284 6.46657L10.1388 7.86895ZM5.86094 7.86895C7.03643 9.06419 8.9633 9.06419 10.1388 7.86895L8.71284 6.46657C8.32101 6.86498 7.67872 6.86498 7.28689 6.46657L5.86094 7.86895Z" fill="#575B66"/>
<path d="M0.840727 11.2473C0.506265 11.6868 0.591408 12.3142 1.0309 12.6487C1.47039 12.9831 2.09781 12.898 2.43227 12.4585L0.840727 11.2473ZM13.568 12.4585C13.9025 12.898 14.5299 12.9831 14.9694 12.6487C15.4089 12.3142 15.494 11.6868 15.1595 11.2473L13.568 12.4585ZM11.2201 6.07084C10.8857 5.63135 10.2583 5.5462 9.81878 5.88067C9.37929 6.21513 9.29414 6.84254 9.6286 7.28203L11.2201 6.07084ZM6.37166 7.28203C6.70612 6.84254 6.62098 6.21513 6.18149 5.88067C5.742 5.5462 5.11458 5.63135 4.78012 6.07084L6.37166 7.28203ZM15.1595 11.2473L11.2201 6.07084L9.6286 7.28203L13.568 12.4585L15.1595 11.2473ZM4.78012 6.07084L0.840727 11.2473L2.43227 12.4585L6.37166 7.28203L4.78012 6.07084Z" fill="#575B66"/>
<rect x="1" y="1.5" width="14" height="11" rx="2" stroke="#575B66" stroke-width="2" stroke-linecap="round" stroke-linejoin="round"/>
</svg>
