<svg width="24" height="24" viewBox="0 0 24 24" fill="none" xmlns="http://www.w3.org/2000/svg">
<path d="M12.25 3H14.0952C15.1472 3 16 3.85279 16 4.90476V4.90476M4.75 3H3C1.89543 3 1 3.89543 1 5V21C1 22.1046 1.89543 23 3 23H14C15.1046 23 16 22.1046 16 21V14.4286" stroke="#1D1F26" stroke-width="2" stroke-linecap="round"/>
<path d="M22.0954 6.72725L9.33506 16.4588L6.78734 16.6455L7.63982 14.2391L20.4002 4.50757C20.8393 4.17265 21.4671 4.25695 21.8023 4.69586L22.2836 5.32611C22.6188 5.76502 22.5345 6.39233 22.0954 6.72725Z" stroke="#1D1F26" stroke-width="2"/>
<path d="M18.7329 5.92676L20.5457 8.1593" stroke="#1D1F26" stroke-width="2"/>
<rect x="5" y="1" width="7" height="4" rx="1" stroke="#1D1F26" stroke-width="2" stroke-linecap="round" stroke-linejoin="round"/>
<path d="M5.725 5V5C4.77231 5 4 5.77231 4 6.725V18C4 19.1046 4.89543 20 6 20H11C12.1046 20 13 19.1046 13 18V16.7188M11.125 5V5C12.1605 5 13 5.83947 13 6.875V6.875" stroke="#1D1F26" stroke-width="2" stroke-linecap="round" stroke-linejoin="round"/>
</svg>
