<svg width="24" height="24" viewBox="0 0 24 24" fill="none" xmlns="http://www.w3.org/2000/svg">
<path d="M23 13.5782H21.0127C20.9762 13.5782 20.9426 13.5982 20.925 13.6302L18.5569 17.9521C18.5156 18.0273 18.3693 18.0098 18.3604 17.9286L16.9514 6.07135C16.9411 5.97717 16.7605 5.97579 16.7477 6.0698L15.3477 15.3609C15.3388 15.4261 15.2344 15.4542 15.1735 15.4079L12.7942 13.5986C12.7768 13.5854 12.7556 13.5782 12.7337 13.5782H11.2917C11.2552 13.5782 11.2216 13.5982 11.204 13.6302L8.8359 17.9521C8.79467 18.0273 8.64838 18.0098 8.63947 17.9286L7.23046 6.07135C7.22014 5.97717 7.0395 5.97579 7.02671 6.0698L5.6267 15.3609C5.61783 15.4261 5.51348 15.4542 5.45256 15.4079L3.07334 13.5986C3.05594 13.5854 3.03467 13.5782 3.01281 13.5782H1" stroke="#1D1F26" stroke-width="2" stroke-linecap="round" stroke-linejoin="round"/>
</svg>
