<?xml version="1.0" encoding="utf-8"?>
<!-- Generator: Adobe Illustrator 25.3.1, SVG Export Plug-In . SVG Version: 6.00 Build 0)  -->
<svg version="1.1" id="Layer_1" xmlns="http://www.w3.org/2000/svg" xmlns:xlink="http://www.w3.org/1999/xlink" x="0px" y="0px"
	 viewBox="0 0 994.6 462.4" style="enable-background:new 0 0 994.6 462.4;" xml:space="preserve">
<style type="text/css">
	.st0{display:none;fill:#2E5159;}
	.st1{fill:#5C8B96;}
	.st2{fill:#2E5159;}
	.st3{fill:#BFD4D9;}
	.st4{fill:#E6F0F2;}
</style>
<rect x="-4.6" y="-0.2" class="st0" width="1000" height="463.3"/>
<g id="Expanded">
	<path class="st1" d="M686.4,171.8c-11.2-38.4-34.9-72.9-66.9-97.3c-33-25.2-72.5-38.5-114.1-38.5c-41,0-80,13-112.8,37.5
		c-31.7,23.7-55.6,57.4-67.3,95l-3.2-1c11.9-38.2,36.2-72.6,68.4-96.7c33.3-24.9,73-38.1,114.8-38.1c42.4,0,82.5,13.5,116.2,39.1
		c32.5,24.8,56.7,59.9,68.1,99L686.4,171.8z"/>
	<path class="st1" d="M506,416.5c-42.4,0-82.5-13.5-116.2-39.1c-32.5-24.8-56.7-59.9-68.1-99l3.2-0.9c11.2,38.4,34.9,72.9,66.9,97.3
		c33,25.2,72.5,38.5,114.1,38.5c41.7,0,81.2-13.3,114.3-38.6c32-24.4,55.8-59.1,66.9-97.5l3.2,0.9c-11.3,39.1-35.5,74.4-68.1,99.3
		C588.7,402.9,548.4,416.5,506,416.5z"/>
	
		<rect x="322.6" y="277.4" transform="matrix(1 -1.221729e-03 1.221729e-03 1 -0.339 0.6176)" class="st1" width="365.4" height="0.6"/>
	
		<rect x="564.3" y="-8.1" transform="matrix(0.6852 -0.7284 0.7284 0.6852 60.2067 462.0465)" class="st1" width="0.6" height="338.9"/>
	
		<rect x="628.5" y="31" transform="matrix(0.8908 -0.4545 0.4545 0.8908 -4.6676 303.3962)" class="st1" width="0.6" height="260.7"/>
	<rect x="505.2" y="34.2" transform="matrix(0.28 -0.96 0.96 0.28 148.6459 646.7859)" class="st1" width="0.6" height="380.3"/>
	
		<rect x="426" y="340.3" transform="matrix(0.8908 -0.4545 0.4545 0.8908 -93.1068 293.799)" class="st1" width="277.2" height="0.6"/>
	
		<rect x="315" y="224.2" transform="matrix(0.9601 -0.2797 0.2797 0.9601 -42.6003 150.4231)" class="st1" width="381.7" height="0.6"/>
	
		<rect x="445.8" y="202.3" transform="matrix(0.4537 -0.8912 0.8912 0.4537 -59.9726 583.7377)" class="st1" width="0.6" height="277.1"/>
	
		<rect x="251.4" y="161.3" transform="matrix(0.4535 -0.8912 0.8912 0.4535 64.6798 428.7167)" class="st1" width="261.1" height="0.6"/>
	<rect x="440.9" y="45.3" class="st1" width="0.6" height="358.3"/>
	
		<rect x="505.1" y="34.1" transform="matrix(0.9414 -0.3373 0.3373 0.9414 -46.0828 183.5928)" class="st1" width="0.6" height="380.6"/>
	
		<rect x="564.8" y="-30.8" transform="matrix(0.4526 -0.8917 0.8917 0.4526 212.896 563.1816)" class="st1" width="0.6" height="277.9"/>
	
		<rect x="307.9" y="107.9" transform="matrix(0.8908 -0.4545 0.4545 0.8908 -0.4164 214.6266)" class="st1" width="276.8" height="0.6"/>
	
		<rect x="276.8" y="161.3" transform="matrix(0.7271 -0.6866 0.6866 0.7271 10.877 350.5029)" class="st1" width="338.9" height="0.6"/>
	
		<rect x="315.1" y="224.1" transform="matrix(0.3373 -0.9414 0.9414 0.3373 123.6443 624.5208)" class="st1" width="380.6" height="0.6"/>
	<rect x="569.2" y="45.3" class="st1" width="0.6" height="358.3"/>
	
		<rect x="498.6" y="287" transform="matrix(0.4555 -0.8902 0.8902 0.4555 86.8439 716.662)" class="st1" width="261.4" height="0.6"/>
	
		<rect x="446" y="117.8" transform="matrix(0.6861 -0.7275 0.7275 0.6861 -68.9398 414.8684)" class="st1" width="0.6" height="338.9"/>
	
		<rect x="395.2" y="287" transform="matrix(0.7296 -0.6839 0.6839 0.7296 -43.6872 464.2051)" class="st1" width="339.9" height="0.6"/>
	
		<rect x="381.8" y="156.9" transform="matrix(0.8914 -0.4532 0.4532 0.8914 -88.7221 204.3681)" class="st1" width="0.6" height="260.9"/>
	<rect x="323" y="170.7" class="st1" width="366.1" height="0.6"/>
	<circle class="st2" cx="634.5" cy="277.7" r="5"/>
	<path class="st1" d="M634.5,283.5c-3.2,0-5.8-2.6-5.8-5.8c0-3.2,2.6-5.8,5.8-5.8c3.2,0,5.8,2.6,5.8,5.8c0,0,0,0,0,0
		C640.3,280.9,637.7,283.5,634.5,283.5z M634.5,273.6c-2.3,0-4.2,1.9-4.2,4.2c0,2.3,1.9,4.2,4.2,4.2c2.3,0,4.2-1.9,4.2-4.2
		c0,0,0,0,0,0C638.7,275.4,636.8,273.6,634.5,273.6L634.5,273.6z"/>
	<circle class="st2" cx="524.8" cy="171.1" r="5"/>
	<path class="st1" d="M524.8,176.9c-3.2,0-5.8-2.6-5.8-5.8s2.6-5.8,5.8-5.8c3.2,0,5.8,2.6,5.8,5.8c0,0,0,0,0,0
		C530.6,174.3,528,176.9,524.8,176.9z M524.8,166.9c-2.3,0-4.2,1.9-4.2,4.2c0,2.3,1.9,4.2,4.2,4.2c2.3,0,4.2-1.9,4.2-4.2
		C529,168.8,527.1,166.9,524.8,166.9z"/>
	<circle class="st2" cx="377.6" cy="277.7" r="5"/>
	<path class="st1" d="M377.6,283.5c-3.2,0-5.8-2.6-5.8-5.8c0-3.2,2.6-5.8,5.8-5.8c3.2,0,5.8,2.6,5.8,5.8c0,0,0,0,0,0
		C383.4,280.9,380.8,283.5,377.6,283.5z M377.6,273.6c-2.3,0-4.2,1.9-4.2,4.1c0,2.3,1.9,4.2,4.1,4.2c2.3,0,4.2-1.9,4.2-4.1
		c0,0,0,0,0,0C381.7,275.4,379.9,273.6,377.6,273.6L377.6,273.6z"/>
	<circle class="st2" cx="486.6" cy="277.7" r="5"/>
	<path class="st1" d="M486.6,283.5c-3.2,0-5.8-2.6-5.8-5.8s2.6-5.8,5.8-5.8s5.8,2.6,5.8,5.8c0,0,0,0,0,0
		C492.4,280.9,489.8,283.5,486.6,283.5z M486.6,273.6c-2.3,0-4.2,1.9-4.2,4.2c0,2.3,1.9,4.2,4.2,4.2c2.3,0,4.2-1.9,4.2-4.2
		c0,0,0,0,0,0C490.7,275.4,488.9,273.6,486.6,273.6L486.6,273.6z"/>
	<circle class="st2" cx="524.8" cy="277.7" r="5"/>
	<path class="st1" d="M524.8,283.5c-3.2,0-5.8-2.6-5.8-5.8c0-3.2,2.6-5.8,5.8-5.8c3.2,0,5.8,2.6,5.8,5.8c0,0,0,0,0,0
		C530.6,280.9,528.1,283.5,524.8,283.5z M524.8,273.6c-2.3,0-4.2,1.9-4.2,4.2c0,2.3,1.9,4.2,4.2,4.2c2.3,0,4.2-1.9,4.2-4.2
		c0,0,0,0,0,0C529,275.4,527.1,273.6,524.8,273.6L524.8,273.6z"/>
	<circle class="st2" cx="569.9" cy="170" r="5"/>
	<path class="st1" d="M569.9,175.8c-3.2,0-5.8-2.6-5.8-5.8s2.6-5.8,5.8-5.8c3.2,0,5.8,2.6,5.8,5.8c0,0,0,0,0,0
		C575.7,173.2,573.1,175.8,569.9,175.8z M569.9,165.8c-2.3,0-4.2,1.9-4.2,4.2c0,2.3,1.9,4.2,4.2,4.2c2.3,0,4.2-1.9,4.2-4.2
		C574,167.7,572.2,165.8,569.9,165.8z"/>
	<circle class="st2" cx="441.5" cy="110.8" r="5"/>
	<path class="st3" d="M441.5,116.6c-3.2,0-5.8-2.6-5.8-5.8c0-3.2,2.6-5.8,5.8-5.8c3.2,0,5.8,2.6,5.8,5.8c0,0,0,0,0,0
		C447.3,114,444.7,116.6,441.5,116.6z M441.5,106.6c-2.3,0-4.2,1.9-4.2,4.1c0,2.3,1.9,4.2,4.1,4.2c2.3,0,4.2-1.9,4.2-4.1
		c0,0,0,0,0,0C445.7,108.5,443.8,106.6,441.5,106.6z"/>
	<circle class="st2" cx="461.4" cy="100.6" r="5"/>
	<path class="st4" d="M461.4,106.4c-3.2,0-5.8-2.6-5.8-5.8s2.6-5.8,5.8-5.8c3.2,0,5.8,2.6,5.8,5.8c0,0,0,0,0,0
		C467.2,103.8,464.6,106.4,461.4,106.4z M461.4,96.5c-2.3,0-4.2,1.9-4.2,4.2s1.9,4.2,4.2,4.2c2.3,0,4.2-1.9,4.2-4.2l0,0
		C465.5,98.3,463.7,96.5,461.4,96.5z"/>
	<circle class="st2" cx="550.1" cy="100.6" r="5"/>
	<path class="st4" d="M550.1,106.4c-3.2,0-5.8-2.6-5.8-5.8c0-3.2,2.6-5.8,5.8-5.8c3.2,0,5.8,2.6,5.8,5.8c0,0,0,0,0,0
		C555.9,103.8,553.3,106.4,550.1,106.4z M550.1,96.5c-2.3,0-4.2,1.9-4.2,4.2s1.9,4.2,4.2,4.2c2.3,0,4.2-1.9,4.2-4.2l0,0
		C554.2,98.3,552.4,96.5,550.1,96.5z"/>
	<circle class="st2" cx="486.6" cy="87.8" r="5"/>
	<path class="st4" d="M486.6,93.6c-3.2,0-5.8-2.6-5.8-5.8s2.6-5.8,5.8-5.8s5.8,2.6,5.8,5.8c0,0,0,0,0,0
		C492.4,91,489.8,93.6,486.6,93.6z M486.6,83.6c-2.3,0-4.2,1.9-4.2,4.2s1.9,4.2,4.2,4.2c2.3,0,4.2-1.9,4.2-4.2
		C490.7,85.5,488.9,83.6,486.6,83.6z"/>
	<circle class="st2" cx="524.8" cy="87.8" r="5"/>
	<path class="st4" d="M524.8,93.6c-3.2,0-5.8-2.6-5.8-5.8c0-3.2,2.6-5.8,5.8-5.8c3.2,0,5.8,2.6,5.8,5.8c0,0,0,0,0,0
		C530.6,91,528,93.6,524.8,93.6z M524.8,83.6c-2.3,0-4.2,1.9-4.2,4.2s1.9,4.2,4.2,4.2c2.3,0,4.2-1.9,4.2-4.2
		C529,85.5,527.1,83.6,524.8,83.6z"/>
	<circle class="st2" cx="396.6" cy="133.7" r="5"/>
	<path class="st3" d="M396.6,139.5c-3.2,0-5.8-2.6-5.8-5.8c0-3.2,2.6-5.8,5.8-5.8c3.2,0,5.8,2.6,5.8,5.8v0
		C402.4,136.9,399.8,139.5,396.6,139.5z M396.6,129.5c-2.3,0-4.2,1.9-4.2,4.2s1.9,4.2,4.2,4.2c2.3,0,4.2-1.9,4.2-4.2c0,0,0,0,0,0
		C400.7,131.4,398.9,129.5,396.6,129.5z"/>
	<circle class="st2" cx="486.6" cy="171.1" r="5"/>
	<path class="st1" d="M486.6,176.9c-3.2,0-5.8-2.6-5.8-5.8c0-3.2,2.6-5.8,5.8-5.8c3.2,0,5.8,2.6,5.8,5.8c0,0,0,0,0,0
		C492.4,174.3,489.8,176.9,486.6,176.9z M486.6,166.9c-2.3,0-4.2,1.9-4.2,4.2c0,2.3,1.9,4.2,4.2,4.2c2.3,0,4.2-1.9,4.2-4.2
		C490.7,168.8,488.9,166.9,486.6,166.9z"/>
	<circle class="st2" cx="441.5" cy="277.7" r="5"/>
	<path class="st1" d="M441.5,283.5c-3.2,0-5.8-2.6-5.8-5.8c0-3.2,2.6-5.8,5.8-5.8c3.2,0,5.8,2.6,5.8,5.8c0,0,0,0,0,0
		C447.3,280.9,444.7,283.5,441.5,283.5z M441.5,273.6c-2.3,0-4.2,1.9-4.2,4.1c0,2.3,1.9,4.2,4.1,4.2c2.3,0,4.2-1.9,4.2-4.1
		c0,0,0,0,0,0C445.7,275.4,443.8,273.6,441.5,273.6L441.5,273.6z"/>
	<circle class="st2" cx="569.9" cy="277.7" r="5"/>
	<path class="st1" d="M569.9,283.5c-3.2,0-5.8-2.6-5.8-5.8c0-3.2,2.6-5.8,5.8-5.8c3.2,0,5.8,2.6,5.8,5.8c0,0,0,0,0,0
		C575.7,280.9,573.1,283.5,569.9,283.5z M569.9,273.6c-2.3,0-4.2,1.9-4.2,4.2c0,2.3,1.9,4.2,4.2,4.2c2.3,0,4.2-1.9,4.2-4.2
		c0,0,0,0,0,0C574,275.4,572.2,273.6,569.9,273.6L569.9,273.6z"/>
	<circle class="st2" cx="441.5" cy="170" r="5"/>
	<path class="st1" d="M441.5,175.8c-3.2,0-5.8-2.6-5.8-5.8c0-3.2,2.6-5.8,5.8-5.8c3.2,0,5.8,2.6,5.8,5.8c0,0,0,0,0,0
		C447.3,173.2,444.7,175.8,441.5,175.8z M441.5,165.8c-2.3,0-4.2,1.9-4.2,4.1c0,2.3,1.9,4.2,4.1,4.2c2.3,0,4.2-1.9,4.2-4.1
		c0,0,0,0,0,0C445.7,167.7,443.8,165.8,441.5,165.8z"/>
	<circle class="st2" cx="377.6" cy="171.1" r="5"/>
	<path class="st1" d="M377.6,176.9c-3.2,0-5.8-2.6-5.8-5.8c0-3.2,2.6-5.8,5.8-5.8c3.2,0,5.8,2.6,5.8,5.8c0,0,0,0,0,0
		C383.4,174.3,380.8,176.9,377.6,176.9z M377.6,166.9c-2.3,0-4.2,1.9-4.2,4.1c0,2.3,1.9,4.2,4.1,4.2s4.2-1.9,4.2-4.1c0,0,0,0,0,0
		C381.7,168.8,379.9,166.9,377.6,166.9z"/>
	<circle class="st2" cx="634.5" cy="171.1" r="5"/>
	<path class="st1" d="M634.5,176.9c-3.2,0-5.8-2.6-5.8-5.8c0-3.2,2.6-5.8,5.8-5.8c3.2,0,5.8,2.6,5.8,5.8c0,0,0,0,0,0
		C640.3,174.3,637.7,176.9,634.5,176.9z M634.5,166.9c-2.3,0-4.2,1.9-4.2,4.2c0,2.3,1.9,4.2,4.2,4.2c2.3,0,4.2-1.9,4.2-4.2
		C638.7,168.8,636.8,166.9,634.5,166.9z"/>
	<circle class="st2" cx="615.2" cy="133.4" r="5"/>
	<path class="st3" d="M615.2,139.2c-3.2,0-5.8-2.6-5.8-5.8c0-3.2,2.6-5.8,5.8-5.8c3.2,0,5.8,2.6,5.8,5.8
		C621,136.6,618.4,139.2,615.2,139.2L615.2,139.2z M615.2,129.2c-2.3,0-4.2,1.9-4.2,4.2s1.9,4.2,4.2,4.2c2.3,0,4.2-1.9,4.2-4.2l0,0
		C619.3,131.1,617.5,129.2,615.2,129.2z"/>
	<circle class="st2" cx="615.2" cy="315.5" r="5"/>
	<path class="st3" d="M615.2,321.3c-3.2,0-5.8-2.6-5.8-5.8c0-3.2,2.6-5.8,5.8-5.8s5.8,2.6,5.8,5.8v0
		C621,318.7,618.4,321.3,615.2,321.3z M615.2,311.3c-2.3,0-4.2,1.9-4.2,4.2c0,2.3,1.9,4.2,4.2,4.2c2.3,0,4.2-1.9,4.2-4.2
		c0,0,0,0,0,0C619.3,313.2,617.5,311.3,615.2,311.3L615.2,311.3z"/>
	<circle class="st2" cx="396.6" cy="315.5" r="5"/>
	<path class="st3" d="M396.6,321.3c-3.2,0-5.8-2.6-5.8-5.8c0-3.2,2.6-5.8,5.8-5.8c3.2,0,5.8,2.6,5.8,5.8v0
		C402.4,318.7,399.8,321.3,396.6,321.3z M396.6,311.3c-2.3,0-4.2,1.9-4.2,4.2c0,2.3,1.9,4.2,4.2,4.2c2.3,0,4.2-1.9,4.2-4.2
		c0,0,0,0,0,0C400.7,313.2,398.9,311.3,396.6,311.3L396.6,311.3z"/>
	<circle class="st2" cx="569.9" cy="110.8" r="5"/>
	<path class="st3" d="M569.9,116.6c-3.2,0-5.8-2.6-5.8-5.8c0-3.2,2.6-5.8,5.8-5.8s5.8,2.6,5.8,5.8v0
		C575.7,114,573.1,116.6,569.9,116.6z M569.9,106.6c-2.3,0-4.2,1.9-4.2,4.2s1.9,4.2,4.2,4.2c2.3,0,4.2-1.9,4.2-4.2
		C574,108.5,572.2,106.6,569.9,106.6z"/>
	<circle class="st2" cx="505.6" cy="105.7" r="5"/>
	<path class="st3" d="M505.6,111.5c-3.2,0-5.8-2.6-5.8-5.8s2.6-5.8,5.8-5.8c3.2,0,5.8,2.6,5.8,5.8v0
		C511.4,108.9,508.8,111.5,505.6,111.5z M505.6,101.5c-2.3,0-4.2,1.9-4.2,4.2s1.9,4.2,4.2,4.2c2.3,0,4.2-1.9,4.2-4.2c0,0,0,0,0,0
		C509.8,103.4,507.9,101.5,505.6,101.5z"/>
	<circle class="st2" cx="505.6" cy="77.8" r="5"/>
	<path class="st4" d="M505.6,83.6c-3.2,0-5.8-2.6-5.8-5.8c0-3.2,2.6-5.8,5.8-5.8c3.2,0,5.8,2.6,5.8,5.8c0,0,0,0,0,0
		C511.4,81,508.8,83.6,505.6,83.6z M505.6,73.7c-2.3,0-4.2,1.9-4.2,4.2s1.9,4.2,4.2,4.2c2.3,0,4.2-1.9,4.2-4.2c0,0,0,0,0,0
		C509.8,75.5,507.9,73.7,505.6,73.7L505.6,73.7z"/>
	<circle class="st2" cx="505.6" cy="371.8" r="5"/>
	<path class="st4" d="M505.6,377.6c-3.2,0-5.8-2.6-5.8-5.8c0-3.2,2.6-5.8,5.8-5.8c3.2,0,5.8,2.6,5.8,5.8c0,0,0,0,0,0
		C511.4,375,508.8,377.6,505.6,377.6z M505.6,367.6c-2.3,0-4.2,1.9-4.2,4.2c0,2.3,1.9,4.2,4.2,4.2c2.3,0,4.2-1.9,4.2-4.2l0,0
		C509.8,369.5,507.9,367.6,505.6,367.6L505.6,367.6z"/>
	<circle class="st2" cx="505.6" cy="343.9" r="5"/>
	<path class="st3" d="M505.6,349.7c-3.2,0-5.8-2.6-5.8-5.8c0-3.2,2.6-5.8,5.8-5.8c3.2,0,5.8,2.6,5.8,5.8v0
		C511.4,347.1,508.8,349.7,505.6,349.7z M505.6,339.8c-2.3,0-4.2,1.9-4.2,4.2s1.9,4.2,4.2,4.2c2.3,0,4.2-1.9,4.2-4.2c0,0,0,0,0,0
		C509.8,341.6,507.9,339.8,505.6,339.8L505.6,339.8z"/>
	<circle class="st2" cx="441.5" cy="338.2" r="5"/>
	<path class="st3" d="M441.5,344c-3.2,0-5.8-2.6-5.8-5.8c0-3.2,2.6-5.8,5.8-5.8c3.2,0,5.8,2.6,5.8,5.8c0,0,0,0,0,0
		C447.3,341.4,444.7,344,441.5,344z M441.5,334c-2.3,0-4.2,1.9-4.2,4.1c0,2.3,1.9,4.2,4.1,4.2s4.2-1.9,4.2-4.1c0,0,0,0,0,0
		C445.7,335.9,443.8,334,441.5,334L441.5,334L441.5,334z"/>
	<circle class="st2" cx="473.2" cy="313.1" r="5"/>
	<path class="st3" d="M473.2,318.9c-3.2,0-5.8-2.6-5.8-5.8c0-3.2,2.6-5.8,5.8-5.8c3.2,0,5.8,2.6,5.8,5.8c0,0,0,0,0,0
		C479,316.3,476.4,318.9,473.2,318.9z M473.2,309c-2.3,0-4.2,1.9-4.2,4.1s1.9,4.2,4.1,4.2c2.3,0,4.2-1.9,4.2-4.1c0,0,0,0,0,0
		C477.3,310.8,475.5,309,473.2,309z"/>
	<circle class="st2" cx="537.5" cy="313.1" r="5"/>
	<path class="st3" d="M537.5,318.9c-3.2,0-5.8-2.6-5.8-5.8c0-3.2,2.6-5.8,5.8-5.8c3.2,0,5.8,2.6,5.8,5.8c0,0,0,0,0,0
		C543.3,316.3,540.7,318.9,537.5,318.9z M537.5,309c-2.3,0-4.2,1.9-4.2,4.1s1.9,4.2,4.1,4.2c2.3,0,4.2-1.9,4.2-4.1c0,0,0,0,0,0
		C541.6,310.8,539.8,309,537.5,309z"/>
	<circle class="st2" cx="473.2" cy="135.3" r="5"/>
	<path class="st3" d="M473.2,141.1c-3.2,0-5.8-2.6-5.8-5.8c0-3.2,2.6-5.8,5.8-5.8c3.2,0,5.8,2.6,5.8,5.8c0,0,0,0,0,0
		C479,138.5,476.4,141.1,473.2,141.1z M473.2,131.1c-2.3,0-4.2,1.9-4.2,4.1s1.9,4.2,4.1,4.2c2.3,0,4.2-1.9,4.2-4.1c0,0,0,0,0,0
		C477.3,133,475.5,131.1,473.2,131.1L473.2,131.1z"/>
	<circle class="st2" cx="537.5" cy="135.3" r="5"/>
	<path class="st3" d="M537.5,141.1c-3.2,0-5.8-2.6-5.8-5.8c0-3.2,2.6-5.8,5.8-5.8c3.2,0,5.8,2.6,5.8,5.8c0,0,0,0,0,0
		C543.3,138.5,540.7,141.1,537.5,141.1z M537.5,131.1c-2.3,0-4.2,1.9-4.2,4.1s1.9,4.2,4.1,4.2s4.2-1.9,4.2-4.1c0,0,0,0,0,0
		C541.6,133,539.8,131.1,537.5,131.1L537.5,131.1z"/>
	<circle class="st2" cx="569.9" cy="338.2" r="5"/>
	<path class="st3" d="M569.9,344c-3.2,0-5.8-2.6-5.8-5.8c0-3.2,2.6-5.8,5.8-5.8s5.8,2.6,5.8,5.8c0,0,0,0,0,0
		C575.7,341.4,573.1,344,569.9,344z M569.9,334c-2.3,0-4.2,1.9-4.2,4.2s1.9,4.2,4.2,4.2c2.3,0,4.2-1.9,4.2-4.2l0,0
		C574.1,335.9,572.2,334,569.9,334C569.9,334,569.9,334,569.9,334L569.9,334z"/>
	<circle class="st2" cx="550.2" cy="348.5" r="5"/>
	<path class="st4" d="M550.2,354.3c-3.2,0-5.8-2.6-5.8-5.8c0-3.2,2.6-5.8,5.8-5.8c3.2,0,5.8,2.6,5.8,5.8c0,0,0,0,0,0
		C556,351.7,553.4,354.3,550.2,354.3z M550.2,344.3c-2.3,0-4.2,1.9-4.2,4.1s1.9,4.2,4.1,4.2c2.3,0,4.2-1.9,4.2-4.1c0,0,0,0,0,0
		C554.3,346.2,552.4,344.3,550.2,344.3L550.2,344.3z"/>
	<circle class="st2" cx="524.8" cy="361.3" r="5"/>
	<path class="st4" d="M524.8,367.1c-3.2,0-5.8-2.6-5.8-5.8c0-3.2,2.6-5.8,5.8-5.8s5.8,2.6,5.8,5.8v0
		C530.6,364.5,528.1,367.1,524.8,367.1z M524.8,357.2c-2.3,0-4.2,1.9-4.2,4.2c0,2.3,1.9,4.2,4.2,4.2c2.3,0,4.2-1.9,4.2-4.2
		C529,359,527.1,357.2,524.8,357.2L524.8,357.2z"/>
	<circle class="st2" cx="486.6" cy="361.1" r="5"/>
	<path class="st4" d="M486.6,366.9c-3.2,0-5.8-2.6-5.8-5.8c0-3.2,2.6-5.8,5.8-5.8c3.2,0,5.8,2.6,5.8,5.8c0,0,0,0,0,0
		C492.4,364.3,489.8,366.9,486.6,366.9z M486.6,357c-2.3,0-4.2,1.9-4.2,4.2c0,2.3,1.9,4.2,4.2,4.2c2.3,0,4.2-1.9,4.2-4.2
		C490.7,358.8,488.9,357,486.6,357L486.6,357z"/>
	<circle class="st2" cx="461.3" cy="348.5" r="5"/>
	<path class="st4" d="M461.3,354.3c-3.2,0-5.8-2.6-5.8-5.8c0-3.2,2.6-5.8,5.8-5.8c3.2,0,5.8,2.6,5.8,5.8c0,0,0,0,0,0
		C467.1,351.7,464.5,354.3,461.3,354.3z M461.3,344.3c-2.3,0-4.2,1.9-4.2,4.2s1.9,4.2,4.2,4.2c2.3,0,4.2-1.9,4.2-4.2l0,0
		C465.4,346.2,463.6,344.3,461.3,344.3L461.3,344.3z"/>
	<circle class="st2" cx="323.4" cy="277.8" r="8.3"/>
	<path class="st1" d="M323.4,287.8c-5.5,0-10-4.5-10-10c0-5.5,4.5-10,10-10c5.5,0,10,4.5,10,10c0,0,0,0,0,0
		C333.3,283.3,328.9,287.8,323.4,287.8z M323.4,271.2c-3.7,0-6.6,3-6.6,6.6c0,3.7,3,6.6,6.6,6.6c3.7,0,6.6-3,6.6-6.6
		C330,274.2,327,271.2,323.4,271.2L323.4,271.2z"/>
	<circle class="st2" cx="570.3" cy="45.3" r="8.3"/>
	<path class="st1" d="M570.3,55.2c-5.5,0-10-4.5-10-10c0-5.5,4.5-10,10-10s10,4.5,10,10c0,0,0,0,0,0
		C580.2,50.8,575.8,55.2,570.3,55.2z M570.3,38.6c-3.7,0-6.6,3-6.6,6.6c0,3.7,3,6.6,6.6,6.6c3.7,0,6.6-3,6.6-6.6c0,0,0,0,0,0
		C576.9,41.6,573.9,38.6,570.3,38.6L570.3,38.6z"/>
	<circle class="st2" cx="688.8" cy="170" r="8.3"/>
	<path class="st1" d="M688.8,179.9c-5.5,0-10-4.5-10-10c0-5.5,4.5-10,10-10c5.5,0,10,4.5,10,10v0
		C698.7,175.4,694.3,179.9,688.8,179.9z M688.8,163.3c-3.7,0-6.6,3-6.6,6.6c0,3.7,3,6.6,6.6,6.6c3.7,0,6.6-3,6.6-6.6c0,0,0,0,0,0
		C695.4,166.3,692.4,163.3,688.8,163.3L688.8,163.3z"/>
	<circle class="st2" cx="570.3" cy="403.6" r="8.3"/>
	<path class="st1" d="M570.3,413.6c-5.5,0-10-4.5-10-10c0-5.5,4.5-10,10-10s10,4.5,10,10v0C580.2,409.1,575.8,413.5,570.3,413.6z
		 M570.3,397c-3.7,0-6.6,3-6.6,6.6c0,3.7,3,6.6,6.6,6.6s6.6-3,6.6-6.6C576.9,399.9,573.9,397,570.3,397L570.3,397z"/>
	<circle class="st2" cx="441.9" cy="403.6" r="8.3"/>
	<path class="st1" d="M441.9,413.6c-5.5,0-10-4.5-10-10c0-5.5,4.5-10,10-10c5.5,0,10,4.5,10,10v0
		C451.9,409.1,447.4,413.5,441.9,413.6z M441.9,397c-3.7,0-6.6,3-6.6,6.6c0,3.7,3,6.6,6.6,6.6s6.6-3,6.6-6.6
		C448.5,399.9,445.6,397,441.9,397L441.9,397z"/>
	<circle class="st2" cx="441.9" cy="45.3" r="8.3"/>
	<path class="st1" d="M441.9,55.2c-5.5,0-10-4.5-10-10s4.5-10,10-10c5.5,0,10,4.5,10,10c0,0,0,0,0,0
		C451.9,50.8,447.4,55.2,441.9,55.2z M441.9,38.6c-3.7,0-6.6,3-6.6,6.6s3,6.6,6.6,6.6c3.7,0,6.6-3,6.6-6.6c0,0,0,0,0,0
		C448.5,41.6,445.6,38.6,441.9,38.6L441.9,38.6z"/>
	<circle class="st2" cx="688.8" cy="277.5" r="8.3"/>
	<path class="st1" d="M688.8,287.5c-5.5,0-10-4.5-10-10c0-5.5,4.5-10,10-10s10,4.5,10,10l0,0C698.7,283,694.3,287.5,688.8,287.5z
		 M688.8,270.9c-3.7,0-6.6,3-6.6,6.6s3,6.6,6.6,6.6c3.7,0,6.6-3,6.6-6.6C695.4,273.9,692.4,270.9,688.8,270.9z"/>
	<path class="st2" d="M87.5,225.6h5.7l2.9,13.9c1.8,2.1,4.6,3.9,8.2,5.3c3.6,1.4,7.5,2.1,11.4,2.1c12.4,0,18.6-5.1,18.6-15.3
		c0.1-3.1-1.2-6-3.5-8.1c-2.3-2.2-6-4.2-11.1-5.9c-7.4-2.4-12.7-4.4-16-6c-3.3-1.5-6-3.3-8.2-5.4c-2.3-2.1-4.1-4.7-5.4-7.5
		c-1.3-3-2-6.6-2-10.9c0-7.6,2.6-13.4,7.8-17.4c5.2-4,12.8-6,22.8-6c7.2,0,15.3,0.9,24,2.8v20.6h-5.8L134,176
		c-4.4-3.2-9.5-4.8-15.4-4.8c-5.3,0-9.4,1-12.2,2.9c-2.8,2-4.3,5-4.3,9c0,2.9,1.2,5.4,3.6,7.4c2.4,2,6.1,3.9,11.1,5.5
		c9.9,3.2,16.6,6,20.3,8.4c3.7,2.4,6.5,5.4,8.4,8.9c1.9,3.5,2.9,7.7,2.9,12.5c0,18.4-10.8,27.6-32.5,27.6c-5.1,0-10.1-0.4-15.2-1.3
		c-5.1-0.8-9.6-1.9-13.3-3.3V225.6z"/>
	<path class="st2" d="M216.5,248.5c-1.9,1.6-4.6,2.8-8,3.6c-3.5,0.9-7,1.3-10.6,1.3c-10.8,0-18.9-2.6-24.3-7.8s-8.1-13.2-8-23.9
		c0-6.7,1.2-12.4,3.7-17.2c2.4-4.8,5.9-8.4,10.4-10.9c4.5-2.5,9.8-3.8,15.8-3.8c6,0,12.6,0.8,19.7,2.3v18h-4.7l-2.7-10.7
		c-1.3-1-2.8-1.8-4.3-2.3c-1.4-0.4-3.3-0.6-5.6-0.6c-2.5,0-4.8,1-6.9,3c-2.1,2-3.7,4.9-4.8,8.6c-1.1,3.7-1.7,8.1-1.7,13.2
		c0,8.7,1.3,14.9,4,18.6c2.7,3.7,7,5.6,12.8,5.6c5.9,0,11-0.6,15.3-1.9V248.5z"/>
	<path class="st2" d="M262.8,204c4.7-5.2,8.8-8.9,12.5-11.2c3.7-2.3,7.1-3.4,10.1-3.4h3.5v22.2h-3.6l-3.8-8.1
		c-2.7,0-5.8,0.6-9.2,1.8c-3.2,1.1-6.2,2.5-9.1,4.2v36.9l9.8,1.6v4.3h-36.3v-4.3l7.9-1.6v-49.1l-7.9-1.6v-4.3h25.5L262.8,204z"/>
	<path class="st2" d="M333.2,246.3l6.7,1.6v4.3h-31.9v-4.3l6.6-1.6v-49.1l-6.2-1.6v-4.3h24.9V246.3z M313.9,170.2c0-2.8,1-5.2,2.9-7
		c1.9-1.9,4.4-2.9,7-2.8c5.4,0,9.9,4.3,9.9,9.8c0,0,0,0.1,0,0.1c0,2.6-1,5.2-2.8,7c-1.9,2-4.2,2.9-7,2.9c-2.6,0-5.2-1-7-2.9
		C314.8,175.3,313.9,173,313.9,170.2L313.9,170.2z"/>
	<path class="st2" d="M381.5,194.5c4.6-3.1,10.2-4.7,16.8-4.7c8.4,0,14.7,2.5,18.8,7.4c4.1,5,6.2,12.8,6.2,23.5
		c0,10.6-2.4,18.7-7.2,24.3c-4.8,5.6-11.7,8.4-20.6,8.4c-4.7,0-9.3-0.6-13.8-1.7c0.3,2.8,0.4,6,0.4,9.6v13.3l8.9,1.6v4.3h-34.2v-4.3
		l6.6-1.6v-77.3l-6.7-1.6v-4.3h24.6L381.5,194.5z M404.4,221.1c0-16.1-3.7-24.2-11.2-24.2c-3.8,0-7.6,0.8-11.1,2.5v45.8
		c3.6,0.9,7.2,1.4,10.9,1.4C400.6,246.6,404.4,238.1,404.4,221.1z"/>
	<path class="st2" d="M468,253.4c-5.8,0-10.3-1.3-13.5-3.9c-3.2-2.6-4.7-6.4-4.8-11.4v-40h-8v-4.2l9.4-2.5l7.6-13.8h9.7v13.8h12.8
		v6.7h-12.8V237c0,2.8,0.6,4.9,1.7,6.3c1.1,1.4,2.8,2.2,4.6,2.1c2.3,0,5.1-0.3,8.4-1v5.5c-1.3,0.9-3.5,1.7-6.6,2.5
		C473.7,253,470.9,253.4,468,253.4z"/>
	<path class="st2" d="M549.7,253.4c-14.5,0-25.9-3.9-34-11.6c-8.1-7.7-12.2-18.4-12.2-32.1c0-14.8,3.9-26.1,11.7-33.8
		c7.8-7.7,19.3-11.5,34.5-11.5c10,0,20.4,1.4,31.2,4.3l0.4,20.8h-5.8l-1.8-12.5c-5.7-3.9-12.3-5.8-19.8-5.8c-10,0-17.3,3.1-21.9,9.3
		c-4.6,6.2-6.9,15.9-6.9,29c0,12.1,2.4,21.3,7.2,27.7c4.8,6.3,11.8,9.5,21.1,9.5c4.9,0,9.1-0.6,12.8-1.9c3.6-1.3,6.5-2.8,8.6-4.6
		l2.1-14.2h5.9l-0.4,22c-3.9,1.5-8.9,2.8-15.1,3.8C561.3,252.9,555.5,253.4,549.7,253.4z"/>
	<path class="st2" d="M632.4,186.6c0,2.8-0.1,6.2-0.4,10.1l4.5-2.3c6.1-3.1,11.6-4.7,16.5-4.7c11.2,0,16.8,6,16.8,17.9v38.7l6.1,1.6
		v4.3h-30.2v-4.3l5.4-1.6v-36.1c0-3.6-0.8-6.4-2.3-8.5s-3.7-3-6.6-3c-3.4,0-6.7,0.8-9.8,2.2v45.5l5.6,1.6v4.3h-30.2v-4.3l5.9-1.6
		v-80.2l-6.2-1.6v-4.3h24.9V186.6z"/>
	<path class="st2" d="M724.8,190c15.2,0,22.8,5.6,22.8,16.8v39.5l6.1,1.6v4.3h-22.4l-1.4-4.7c-3.4,2.3-6.4,3.8-9.1,4.7
		c-2.7,0.8-5.4,1.3-8.2,1.3c-12.5,0-18.8-6-18.8-18.1c0-4.6,0.9-8.2,2.8-11c1.9-2.7,4.5-4.8,8-6.1c3.5-1.3,9-2.1,16.5-2.2l7.9-0.2
		V207c0-7.3-3-11-9-11c-3.6,0-7.7,1.1-12.2,3.4l-2.5,7.6h-4.3v-14.7c6.5-1,11.3-1.6,14.4-1.9C718.5,190.2,721.7,190,724.8,190z
		 M729,221.6l-5.4,0.2c-4.2,0.2-7.1,1.3-8.7,3.3c-1.6,2-2.4,5.3-2.4,9.8c0,3.7,0.6,6.4,1.9,8.1s3,2.6,5,2.6c2.9,0,6.1-0.8,9.6-2.3
		V221.6z"/>
	<path class="st2" d="M797.2,246.3l6.7,1.6v4.3h-31.9v-4.3l6.6-1.6v-49.1l-6.2-1.6v-4.3h24.9V246.3z M777.8,170.2c0-2.8,1-5.2,2.9-7
		c1.9-1.9,4.4-2.9,7-2.8c5.4,0,9.9,4.3,9.9,9.8c0,0,0,0.1,0,0.1c0,2.6-1,5.2-2.8,7c-1.9,2-4.2,2.9-7,2.9c-2.6,0-5.2-1-7-2.9
		C778.8,175.3,777.8,173,777.8,170.2z"/>
	<path class="st2" d="M847.1,196.7l4.4-2.3c6-3.1,11.5-4.7,16.3-4.7c11.2,0,16.8,6,16.8,17.9v38.7l6.1,1.6v4.3h-30.2v-4.3l5.4-1.6
		v-36.1c0-3.6-0.8-6.4-2.3-8.5c-1.5-2-3.7-3-6.6-3c-3.4,0-6.7,0.8-9.8,2.2v45.5l5.6,1.6v4.3h-30.2v-4.3l5.9-1.6v-49.1l-5.9-1.6v-4.3
		h23.6L847.1,196.7z"/>
	<circle class="st2" cx="323.4" cy="170" r="10.3"/>
	<path class="st4" d="M323.4,181.9c-6.6,0-12-5.3-12-11.9c0-6.6,5.3-12,11.9-12c6.6,0,12,5.3,12,11.9c0,0,0,0,0,0
		C335.3,176.5,330,181.9,323.4,181.9z M323.4,161.3c-4.8,0-8.6,3.9-8.6,8.6c0,4.8,3.9,8.6,8.6,8.6c4.8,0,8.6-3.9,8.6-8.6
		c0,0,0,0,0,0C332,165.2,328.1,161.3,323.4,161.3z"/>
	<circle class="st2" cx="788.1" cy="170" r="10.3"/>
	<path class="st4" d="M788.1,181.9c-6.6,0-12-5.4-12-12c0-6.6,5.4-12,12-12c6.6,0,12,5.4,12,12c0,0,0,0,0,0
		C800,176.6,794.7,181.9,788.1,181.9z M788.1,161.3c-4.8,0-8.6,3.9-8.6,8.6c0,4.8,3.9,8.6,8.6,8.6c4.8,0,8.6-3.9,8.6-8.6
		c0,0,0,0,0,0C796.7,165.2,792.9,161.3,788.1,161.3z"/>
</g>
<g>
	<path class="st2" d="M742.8,298.7h-5.9v-13.9H722v13.9h-5.9V267h5.9v13.6h14.9V267h5.9V298.7z"/>
	<path class="st2" d="M771.4,267v4.7h-14.1v8.8h11.1v4.5h-11.1v9h14.1v4.7h-20V267H771.4z"/>
	<path class="st2" d="M806.5,298.7H802c-0.5,0-0.9-0.1-1.3-0.4c-0.3-0.3-0.6-0.6-0.7-1l-2.4-6.5h-13.1l-2.4,6.5
		c-0.1,0.3-0.3,0.6-0.7,0.9c-0.3,0.3-0.8,0.4-1.3,0.4h-4.6l12.5-31.7h6L806.5,298.7z M786,286.7h10.1l-3.9-10.5
		c-0.2-0.5-0.4-1-0.6-1.7c-0.2-0.6-0.4-1.3-0.6-2.1c-0.2,0.7-0.4,1.4-0.6,2.1c-0.2,0.6-0.4,1.2-0.6,1.7L786,286.7z"/>
	<path class="st2" d="M817.9,293.8h12.7v4.9H812V267h5.9V293.8z"/>
	<path class="st2" d="M855.3,267v4.8h-9.5v26.9h-5.9v-26.9h-9.6V267H855.3z"/>
	<path class="st2" d="M888,298.7h-5.9v-13.9h-14.9v13.9h-5.9V267h5.9v13.6h14.9V267h5.9V298.7z"/>
</g>
</svg>
