<?xml version="1.0" encoding="utf-8"?>
<!-- Generator: Adobe Illustrator 25.3.1, SVG Export Plug-In . SVG Version: 6.00 Build 0)  -->
<svg version="1.1" id="Layer_1" xmlns="http://www.w3.org/2000/svg" xmlns:xlink="http://www.w3.org/1999/xlink" x="0px" y="0px"
	 viewBox="0 0 480 480" style="enable-background:new 0 0 480 480;" xml:space="preserve">
<style type="text/css">
	.st0{fill:#2D5059;}
</style>
<path class="st0" d="M448,121V89h-92.5C341.2,37,293.9,1,240,1S138.8,37,124.5,89H32v32H0v336h202.7c3.2-0.2,6.3,1.6,7.8,4.4
	c5,11.8,16.6,19.5,29.4,19.5c12.8,0,24.4-7.6,29.5-19.4c1.5-2.9,4.6-4.7,7.9-4.5H480V121H448z M240,17c51.1,0,94.7,37.2,102.7,87.7
	c8,50.5-21.8,99.3-70.5,115.2l-3,1L240,273.2l-29.3-52.3l-3-1c-48.6-15.9-78.5-64.7-70.5-115.2C145.3,54.2,188.9,17,240,17z M48,105
	h73.2c-8,56.3,24.9,110.4,78.6,129.1l40.2,71.9l40.2-71.9c53.7-18.7,86.6-72.8,78.6-129.1H432v304H248v-88h-16v88H48V105z M464,441
	H277.3c-9.7-0.2-18.6,5.4-22.6,14.3c-2.5,5.9-8.3,9.7-14.8,9.7c-6.4,0-12.2-3.9-14.7-9.8c-4-8.8-12.9-14.4-22.5-14.2H16V137h16v288
	h416V137h16V441z"/>
<path class="st0" d="M200,265H80v-80h40v-16H64v112h136V265z"/>
<path class="st0" d="M64,297h16v16H64V297z"/>
<path class="st0" d="M96,297h112v16H96V297z"/>
<path class="st0" d="M64,329h16v16H64V329z"/>
<path class="st0" d="M96,329h112v16H96V329z"/>
<path class="st0" d="M64,361h16v16H64V361z"/>
<path class="st0" d="M96,361h112v16H96V361z"/>
<path class="st0" d="M416,305H264v80h152V305z M400,369H280v-48h120V369z"/>
<path class="st0" d="M304,273h112v16H304V273z"/>
<path class="st0" d="M304,241h112v16H304V241z"/>
<path class="st0" d="M344,209h72v16h-72V209z"/>
<path class="st0" d="M360,177h56v16h-56V177z"/>
<path class="st0" d="M264,105h-48v96h48V105z M248,185h-16v-64h16V185z"/>
<path class="st0" d="M240,97c13.3,0,24-10.7,24-24c0-13.3-10.7-24-24-24s-24,10.7-24,24C216,86.2,226.7,97,240,97z M240,65
	c4.4,0,8,3.6,8,8s-3.6,8-8,8s-8-3.6-8-8S235.6,65,240,65z"/>
</svg>
