<?xml version="1.0" encoding="utf-8"?>
<!-- Generator: Adobe Illustrator 25.3.1, SVG Export Plug-In . SVG Version: 6.00 Build 0)  -->
<svg version="1.1" id="Capa_1" xmlns="http://www.w3.org/2000/svg" xmlns:xlink="http://www.w3.org/1999/xlink" x="0px" y="0px"
	 viewBox="0 0 512 512" style="enable-background:new 0 0 512 512;" xml:space="preserve">
<style type="text/css">
	.st0{fill:#2D5059;}
</style>
<g>
	<path class="st0" d="M431.2,371.6c-4.2,0-7.5,3.4-7.5,7.5v99.6c0,10.1-8.2,18.3-18.3,18.3H106.5c-10.1,0-18.3-8.2-18.3-18.3V33.3
		c0-10.1,8.2-18.3,18.3-18.3h54.8c4.2,0,7.5-3.4,7.5-7.5S165.5,0,161.3,0h-54.8C88.2,0,73.2,14.9,73.2,33.3v445.4
		c0,18.4,14.9,33.3,33.3,33.3h298.9c18.4,0,33.3-14.9,33.3-33.3v-99.6C438.8,375,435.4,371.6,431.2,371.6z"/>
	<path class="st0" d="M405.5,0H195.8c-4.2,0-7.5,3.4-7.5,7.5s3.4,7.5,7.5,7.5h209.6c10.1,0,18.3,8.2,18.3,18.3V343
		c0,4.2,3.4,7.5,7.5,7.5s7.5-3.4,7.5-7.5V33.3C438.8,14.9,423.8,0,405.5,0L405.5,0z"/>
	<path class="st0" d="M397.1,424.8V55.4c0-6.9-5.6-12.5-12.5-12.5H127.4c-6.9,0-12.5,5.6-12.5,12.5v369.4c0,6.9,5.6,12.5,12.5,12.5
		h257.2C391.5,437.3,397.1,431.7,397.1,424.8z M382.1,422.3H129.9V57.9h252.2V422.3z"/>
	<circle class="st0" cx="256" cy="467.6" r="14.9"/>
	<path class="st0" d="M356.5,261.4h-29l-12.4-32.3c-1.1-2.9-3.9-4.8-7-4.8s-5.9,1.9-7,4.8l-17,44.4l-26.3-68.7
		c-1.1-2.9-3.9-4.8-7-4.8s-5.9,1.9-7,4.8l-35.5,92.7l-12-31.2c-1.1-2.9-3.9-4.8-7-4.8H157c-4.2,0-7.5,3.4-7.5,7.5s3.4,7.5,7.5,7.5
		h27l17.1,44.7c1.1,2.9,3.9,4.8,7,4.8s5.9-1.9,7-4.8l35.5-92.7l26.3,68.7c1.1,2.9,3.9,4.8,7,4.8s5.9-1.9,7-4.8l17-44.4l7.2,18.8
		c1.1,2.9,3.9,4.8,7,4.8h34.2c4.2,0,7.5-3.4,7.5-7.5C364,264.8,360.7,261.4,356.5,261.4z"/>
	<path class="st0" d="M159.6,183.8h191.7c5.9,0,10.6-4.8,10.6-10.6v-19.9c0-5.9-4.8-10.6-10.6-10.6h-38.8v-38.5
		c0-5.9-4.8-10.6-10.6-10.6h-43.3c-5.9,0-10.6,4.8-10.6,10.6v13.8h-34.5c-0.7-5.2-5.2-9.1-10.5-9.1h-43.3c-5.9,0-10.6,4.8-10.6,10.6
		v53.7C148.9,179,153.7,183.8,159.6,183.8z M346.8,157.6v11.1h-34.4v-11.1H346.8z M262.9,108.5h34.4v60.2h-34.4v-43.3L262.9,108.5z
		 M247.9,168.7h-34.4v-35.8h34.4V168.7z M164,123.8h34.4v1.6v43.3H164V123.8z"/>
	<path class="st0" d="M174.1,401.3c17.2,0,31.2-14,31.2-31.2s-14-31.2-31.2-31.2s-31.2,14-31.2,31.2S156.9,401.3,174.1,401.3z
		 M174.1,353.9c8.9,0,16.2,7.3,16.2,16.2s-7.3,16.2-16.2,16.2s-16.2-7.3-16.2-16.2S165.2,353.9,174.1,353.9z"/>
	<path class="st0" d="M283.6,338.9c-17.2,0-31.2,14-31.2,31.2s14,31.2,31.2,31.2s31.2-14,31.2-31.2S300.8,338.9,283.6,338.9
		L283.6,338.9z M283.6,386.3c-8.9,0-16.2-7.3-16.2-16.2s7.3-16.2,16.2-16.2s16.2,7.3,16.2,16.2S292.5,386.3,283.6,386.3z"/>
	<path class="st0" d="M232.5,349h-16c-4.2,0-7.5,3.4-7.5,7.5s3.4,7.5,7.5,7.5h16c4.2,0,7.5-3.4,7.5-7.5
		C240,352.4,236.6,349,232.5,349z"/>
	<path class="st0" d="M232.5,378.9h-16c-4.2,0-7.5,3.4-7.5,7.5s3.4,7.5,7.5,7.5h16c4.2,0,7.5-3.4,7.5-7.5
		C240,382.3,236.6,378.9,232.5,378.9z"/>
	<path class="st0" d="M342,349h-16c-4.2,0-7.5,3.4-7.5,7.5s3.4,7.5,7.5,7.5h16c4.2,0,7.5-3.4,7.5-7.5C349.5,352.4,346.2,349,342,349
		z"/>
	<path class="st0" d="M342,378.9h-16c-4.2,0-7.5,3.4-7.5,7.5s3.4,7.5,7.5,7.5h16c4.2,0,7.5-3.4,7.5-7.5
		C349.5,382.3,346.2,378.9,342,378.9z"/>
</g>
</svg>
