<?xml version="1.0" encoding="utf-8"?>
<!-- Generator: Adobe Illustrator 25.3.1, SVG Export Plug-In . SVG Version: 6.00 Build 0)  -->
<svg version="1.1" id="Layer_1" xmlns="http://www.w3.org/2000/svg" xmlns:xlink="http://www.w3.org/1999/xlink" x="0px" y="0px"
	 viewBox="0 0 512 512" style="enable-background:new 0 0 512 512;" xml:space="preserve">
<style type="text/css">
	.st0{fill:#2D5059;}
</style>
<g id="surface1">
	<path class="st0" d="M489.5,217.5c-9.8,0-18.1,6.3-21.2,15h-42.8v-8.8c0-4.1-3.4-7.5-7.5-7.5c-4.1,0-7.5,3.4-7.5,7.5v36.6
		c0,37.4-12.5,72.6-35.3,99.2c-31.8,37.1-71.9,65.2-119.2,83.8c-42.3-16.6-78.9-40.9-108.9-72.4c-2.9-3-7.6-3.1-10.6-0.3
		c-3,2.9-3.1,7.6-0.3,10.6c10.4,10.9,21.5,20.9,33.3,30.1v57c-8.7,3.1-15,11.4-15,21.2c0,12.4,10.1,22.5,22.5,22.5
		s22.5-10.1,22.5-22.5c0-9.8-6.3-18.1-15-21.2v-46c20.6,14.2,43.1,26,67.3,35.4c1.4,0.5,2.8,0.8,4.2,0.8c1.4,0,2.8-0.3,4.2-0.8
		c50.2-19.4,92.7-49.2,126.4-88.5c15.6-18.2,26.8-40,33.1-63.7H445c3.1,8.7,11.4,15,21.2,15c12.4,0,22.5-10.1,22.5-22.5
		s-10.1-22.5-22.5-22.5c-9.8,0-18.1,6.3-21.2,15H423c1.7-9.8,2.6-19.9,2.6-30.2v-12.8h42.8c3.1,8.7,11.4,15,21.2,15
		c12.4,0,22.5-10.1,22.5-22.5S501.9,217.5,489.5,217.5z M177,497c-4.1,0-7.5-3.4-7.5-7.5s3.4-7.5,7.5-7.5s7.5,3.4,7.5,7.5
		S181.1,497,177,497z M466.3,290.5c4.1,0,7.5,3.4,7.5,7.5s-3.4,7.5-7.5,7.5s-7.5-3.4-7.5-7.5S462.1,290.5,466.3,290.5z M489.5,247.5
		c-4.1,0-7.5-3.4-7.5-7.5s3.4-7.5,7.5-7.5s7.5,3.4,7.5,7.5S493.6,247.5,489.5,247.5z"/>
	<path class="st0" d="M101.5,260.3V123.9c27.5-6.5,56.1-18.6,85-36.1c42.9-25.8,96.1-25.8,139,0c12.9,7.8,25.7,14.5,38.3,20.1
		c0.1,0.1,0.3,0.1,0.4,0.2c15.7,6.9,31.1,12.2,46.2,15.8v67.8c0,4.1,3.4,7.5,7.5,7.5s7.5-3.4,7.5-7.5v-70.5c0-5.4-3.7-10.1-8.8-11.2
		c-13.8-3.1-27.9-7.7-42.2-13.7V43.7c8.7-3.1,15-11.4,15-21.2C389.5,10.1,379.4,0,367,0s-22.5,10.1-22.5,22.5
		c0,9.8,6.3,18.1,15,21.2v45.6c-8.7-4.3-17.5-9-26.3-14.4c-47.6-28.7-106.8-28.7-154.5,0c-28.6,17.2-56.6,29-83.5,34.9
		c-5.1,1.1-8.8,5.8-8.8,11.2v45.4H43.7c-3.1-8.7-11.4-15-21.2-15C10.1,151.5,0,161.6,0,174s10.1,22.5,22.5,22.5
		c9.8,0,18.1-6.3,21.2-15h42.8v43H67c-3.1-8.7-11.4-15-21.2-15c-12.4,0-22.5,10.1-22.5,22.5s10.1,22.5,22.5,22.5
		c9.8,0,18.1-6.3,21.2-15h19.5v20.8c0,35.9,10.4,69.7,30,97.5c1.5,2.1,3.8,3.2,6.1,3.2c1.5,0,3-0.4,4.3-1.4
		c3.4-2.4,4.2-7.1,1.8-10.5C110.9,323.9,101.5,293.1,101.5,260.3z M367,15c4.1,0,7.5,3.4,7.5,7.5S371.1,30,367,30s-7.5-3.4-7.5-7.5
		S362.9,15,367,15z M22.5,181.5c-4.1,0-7.5-3.4-7.5-7.5s3.4-7.5,7.5-7.5s7.5,3.4,7.5,7.5S26.6,181.5,22.5,181.5z M45.8,239.5
		c-4.1,0-7.5-3.4-7.5-7.5s3.4-7.5,7.5-7.5s7.5,3.4,7.5,7.5S49.9,239.5,45.8,239.5z"/>
	<path class="st0" d="M173.5,129.2c3.7-1.8,5.2-6.3,3.4-10s-6.3-5.2-10.1-3.4c-14.2,7-28.4,12.8-42.3,17.3c-4.8,1.5-8,5.9-8,10.9
		v116.3c0,33.8,11.3,65.6,31.7,89.4c28,32.6,62.8,58,103.6,75.6c1.3,0.6,2.7,0.9,4.2,0.9s2.8-0.3,4.2-0.9
		c40.8-17.6,75.7-43,103.6-75.6c20.4-23.8,31.7-55.6,31.7-89.4V144c0-5-3.2-9.4-8-10.9c-22.9-7.3-46.3-18.2-69.8-32.4
		c-18.6-11.2-40-17.2-61.8-17.2c-21.8,0-43.1,5.9-61.8,17.2l-1.6,1c-3.6,2.1-4.7,6.7-2.6,10.3s6.7,4.7,10.3,2.6
		c0.6-0.3,1.1-0.7,1.7-1c16.3-9.8,35-15,54-15c19,0,37.7,5.2,54,15c23.6,14.2,47.3,25.3,70.5,33v113.8c0,30.2-10,58.5-28.1,79.6
		c-26.1,30.4-58.5,54.2-96.4,70.8c-37.9-16.6-70.4-40.5-96.4-70.8c-18.1-21.1-28.1-49.4-28.1-79.6V146.5
		C145.3,141.9,159.5,136.1,173.5,129.2z"/>
	<path class="st0" d="M256,175.5c-20.7,0-37.5,16.8-37.5,37.5v12.5H216c-9.6,0-17.5,7.9-17.5,17.5v60c0,9.6,7.9,17.5,17.5,17.5h80
		c9.6,0,17.5-7.9,17.5-17.5v-60c0-9.6-7.9-17.5-17.5-17.5h-2.5V213C293.5,192.3,276.7,175.5,256,175.5z M233.5,213
		c0-12.4,10.1-22.5,22.5-22.5s22.5,10.1,22.5,22.5v12.5h-45V213z M298.5,243v60c0,1.4-1.1,2.5-2.5,2.5h-80c-1.4,0-2.5-1.1-2.5-2.5
		v-60c0-1.4,1.1-2.5,2.5-2.5h80C297.4,240.5,298.5,241.6,298.5,243z"/>
	<path class="st0" d="M256,243c-12.4,0-22.5,10.1-22.5,22.5c0,9.8,6.3,18.1,15,21.2v8.8c0,4.1,3.4,7.5,7.5,7.5
		c4.1,0,7.5-3.4,7.5-7.5v-8.8c8.7-3.1,15-11.4,15-21.2C278.5,253.1,268.4,243,256,243z M256,273c-4.1,0-7.5-3.4-7.5-7.5
		s3.4-7.5,7.5-7.5s7.5,3.4,7.5,7.5S260.1,273,256,273z"/>
</g>
</svg>
