<?xml version="1.0" encoding="utf-8"?>
<!-- Generator: Adobe Illustrator 25.3.1, SVG Export Plug-In . SVG Version: 6.00 Build 0)  -->
<svg version="1.1" id="Layer_1" xmlns="http://www.w3.org/2000/svg" xmlns:xlink="http://www.w3.org/1999/xlink" x="0px" y="0px"
	 viewBox="0 0 481 481" style="enable-background:new 0 0 481 481;" xml:space="preserve">
<style type="text/css">
	.st0{fill:#1D1F26;}
</style>
<path class="st0" d="M161.3,481l16-3.2l-8-40c-0.8-3.8-4.1-6.5-8-6.4H97.4V319.6c0-4.4-3.6-8-8-8h-26l48.9-83.9l-13.7-8l-55.9,95.9
	c-1.4,2.5-1.4,5.5,0,8s4,4,6.9,4h32v111.9c0,4.4,3.6,8,8,8h65.4L161.3,481z"/>
<path class="st0" d="M441,240.4v-16.7h-16v16.7c0.1,30.7-9.4,60.6-27,85.7l-27.5,39.2c-1,1.3-1.5,2.9-1.4,4.6v109.5h16V372.5
	l26-36.9C430.7,307.7,441.2,274.5,441,240.4z"/>
<path class="st0" d="M229.3,343.6h47.9c4.4,0,8-3.6,8-8V306c14.2-3.5,27.7-9.3,40-17.2l21.4,21.3c1.5,1.5,3.5,2.4,5.6,2.4
	c2.1,0,4.2-0.9,5.7-2.4l33.9-33.9c3.1-3.1,3.1-8.1,0-11.3l-22.1-22.1c7.2-12.2,12.4-25.4,15.5-39.2h32c4.4,0,8-3.6,8-8v-47.9
	c0-4.4-3.6-8-8-8h-33.2c-3.4-13.2-8.8-25.8-16-37.3l24-24c1.5-1.5,2.4-3.5,2.4-5.6c0-2.1-0.9-4.2-2.4-5.7l-34.1-33.9
	c-3.1-3.1-8.1-3.1-11.3,0l-24,24c-11.6-6.8-24.2-11.9-37.3-15V8c0-4.4-3.6-8-8-8h-47.9c-4.4,0-8,3.6-8,8v34
	c-13.2,3.1-25.9,8.2-37.6,15l-24-24c-3.1-3.1-8.1-3.1-11.3,0L114.6,67c-1.5,1.5-2.4,3.5-2.4,5.7c0,2.1,0.9,4.1,2.4,5.6l22.9,23
	c-7.4,11.9-12.8,25-16.1,38.6h-32c-4.4,0-8,3.6-8,8v47.9c0,4.4,3.6,8,8,8H120c3.2,14.1,8.6,27.6,16,40l-21,21.1
	c-1.5,1.5-2.4,3.5-2.4,5.6c0,2.1,0.9,4.2,2.4,5.7l33.9,33.9c3.1,3.1,8.1,3.1,11.3,0l20.8-20.7c12.5,7.8,26.2,13.5,40.5,16.9v29.5
	C221.4,340,224.9,343.5,229.3,343.6z M184.3,272.7c-3.2-2.2-7.5-1.9-10.2,0.9l-19.7,19.7l-22.6-22.6l19.9-19.9
	c2.7-2.7,3.1-6.9,1-10.1c-9.3-14-15.5-29.7-18.3-46.3c-0.7-3.9-4.1-6.7-8-6.6h-29v-32h29.9c3.8,0.1,7.2-2.6,8-6.3
	c3.4-16,10-31,19.4-44.3c2.1-3.3,1.6-7.7-1.4-10.3l-21.6-21.9l22.6-22.6l22.9,22.5c2.7,2.7,6.8,3.1,10,1
	c13.3-8.7,28.2-14.6,43.8-17.5c3.8-0.7,6.6-4.1,6.6-8V16h32v32.8c-0.1,3.9,2.7,7.3,6.5,8c15.4,3,30.1,9.1,43.1,17.8
	c3.2,2,7.3,1.5,9.9-1.2l22.9-23.1l22.6,22.6l-22.9,22.9c-2.7,2.7-3.1,7-0.9,10.1c9.1,13.1,15.5,27.9,18.8,43.5
	c0.8,3.7,4.2,6.4,8,6.3H409v32h-30.7c-3.9-0.1-7.3,2.8-8,6.6c-2.6,16.1-8.4,31.5-17.3,45.2c-2,3.2-1.6,7.3,1,10l20.9,20.9l-23,22.6
	l-20.3-20.3c-2.8-3-7.4-3.3-10.6-0.9c-13.7,9.7-29.3,16.4-45.8,19.7c-3.8,0.7-6.5,4.1-6.5,8v27.9h-32v-27.8c0.1-3.9-2.7-7.3-6.6-8
	C213.8,288.8,198.1,282.2,184.3,272.7z"/>
<path class="st0" d="M341.1,171.8c0-48.5-39.3-87.9-87.9-87.9c-48.5,0-87.9,39.3-87.9,87.9s39.4,87.9,87.9,87.9
	C301.8,259.7,341.1,220.3,341.1,171.8z M181.3,171.8c0-39.7,32.2-71.9,71.9-71.9c39.7,0,71.9,32.2,71.9,71.9s-32.2,71.9-71.9,71.9
	C213.5,243.7,181.3,211.5,181.3,171.8z"/>
<path class="st0" d="M309.2,171.8c0-4.7-0.6-9.4-1.8-14l-15.5,4c0.9,3.3,1.3,6.6,1.3,10c0,22.1-17.9,40-40,40c-22.1,0-40-17.9-40-40
	s17.9-40,40-40v-16c-30.9,0-55.9,25-55.9,55.9s25,55.9,55.9,55.9C284.1,227.7,309.2,202.7,309.2,171.8z"/>
<path class="st0" d="M283.2,145.4l12-10.6c-5.4-6.1-12.1-11-19.6-14.3l-6.4,14.7C274.6,137.5,279.3,141,283.2,145.4z"/>
</svg>
