<?xml version="1.0" encoding="utf-8"?>
<!-- Generator: Adobe Illustrator 25.3.1, SVG Export Plug-In . SVG Version: 6.00 Build 0)  -->
<svg version="1.1" id="Layer_1" xmlns="http://www.w3.org/2000/svg" xmlns:xlink="http://www.w3.org/1999/xlink" x="0px" y="0px"
	 viewBox="0 0 512 512" style="enable-background:new 0 0 512 512;" xml:space="preserve">
<style type="text/css">
	.st0{fill:#1D1F26;}
</style>
<g>
	<g>
		<path class="st0" d="M375.4,87.4c4.6,0,8.3-3.7,8.3-8.3V34.8c0-19.2-15.6-34.8-34.8-34.8H101.2C82,0,66.3,15.6,66.3,34.8v442.3
			c0,19.2,15.6,34.8,34.8,34.8h247.7c19.2,0,34.8-15.6,34.8-34.8V335.6c0-4.6-3.7-8.3-8.3-8.3c-4.6,0-8.3,3.7-8.3,8.3v141.5
			c0,10.1-8.2,18.2-18.2,18.2H101.2c-10.1,0-18.2-8.2-18.2-18.2V34.8c0-10.1,8.2-18.2,18.2-18.2h247.7c10.1,0,18.2,8.2,18.2,18.2
			v44.2C367.1,83.6,370.8,87.4,375.4,87.4z"/>
	</g>
</g>
<g>
	<g>
		<path class="st0" d="M242.7,35.4h-35.4c-4.6,0-8.3,3.7-8.3,8.3c0,4.6,3.7,8.3,8.3,8.3h35.4c4.6,0,8.3-3.7,8.3-8.3
			C251,39.1,247.3,35.4,242.7,35.4z"/>
	</g>
</g>
<g>
	<g>
		<path class="st0" d="M172,35.4L172,35.4c-4.7,0-8.3,3.7-8.3,8.3c0,4.6,3.8,8.3,8.3,8.3s8.3-3.7,8.3-8.3
			C180.3,39.1,176.6,35.4,172,35.4z"/>
	</g>
</g>
<g>
	<g>
		<path class="st0" d="M242.7,460h-35.4c-4.6,0-8.3,3.7-8.3,8.3c0,4.6,3.7,8.3,8.3,8.3h35.4c4.6,0,8.3-3.7,8.3-8.3
			C251,463.7,247.3,460,242.7,460z"/>
	</g>
</g>
<g>
	<g>
		<path class="st0" d="M340,336.2c-4.6,0-8.3,3.7-8.3,8.3v80.2H118.3V87.4H340c4.6,0,8.3-3.7,8.3-8.3c0-4.6-3.7-8.3-8.3-8.3H110
			c-4.6,0-8.3,3.7-8.3,8.3v353.9c0,4.6,3.7,8.3,8.3,8.3h230c4.6,0,8.3-3.7,8.3-8.3v-88.5C348.3,339.9,344.6,336.2,340,336.2z"/>
	</g>
</g>
<g>
	<g>
		<path class="st0" d="M340.1,150.4L340.1,150.4c-4.7,0-8.3,3.7-8.3,8.3c0,4.6,3.8,8.3,8.3,8.3c4.6,0,8.3-3.7,8.3-8.3
			C348.4,154.1,344.7,150.4,340.1,150.4z"/>
	</g>
</g>
<g>
	<g>
		<path class="st0" d="M340,106.2c-58.2,0-105.6,47.4-105.6,105.6c0,30.6,12.9,59,35.7,79.1c-11.4,18.7-23.9,29.5-24,29.6
			c-2.7,2.3-3.7,6.2-2.3,9.5c1.3,3.1,4.3,5.1,7.7,5.1c0.2,0,0.4,0,0.7,0c1.4-0.1,32.5-2.8,60.1-21.3c9,2.4,18.3,3.7,27.7,3.7
			c58.2,0,105.6-47.4,105.6-105.6C445.6,153.5,398.3,106.2,340,106.2z M340,300.8c-9.1,0-18.1-1.4-26.7-4.1
			c-2.5-0.8-5.2-0.3-7.4,1.2c-10.2,7.5-21.4,12.3-31,15.3c4.3-5.7,8.9-12.5,13.2-20.4c2-3.6,1-8.1-2.2-10.6
			c-22.2-17-34.9-42.8-34.9-70.6c0-49.1,39.9-89,89-89c49.1,0,89,39.9,89,89S389.1,300.8,340,300.8z"/>
	</g>
</g>
<g>
	<g>
		<path class="st0" d="M348.9,256.6h-0.6v-54.2h0.6c4.6,0,8.3-3.7,8.3-8.3c0-4.6-3.7-8.3-8.3-8.3h-17.7c-4.6,0-8.3,3.7-8.3,8.3
			c0,4.6,3.7,8.3,8.3,8.3h0.6v54.2h-0.6c-4.6,0-8.3,3.7-8.3,8.3c0,4.6,3.7,8.3,8.3,8.3h17.7c4.6,0,8.3-3.7,8.3-8.3
			C357.2,260.3,353.5,256.6,348.9,256.6z"/>
	</g>
</g>
<g>
	<g>
		<path class="st0" d="M216.2,291.9h-61.9c-4.6,0-8.3,3.7-8.3,8.3c0,4.6,3.7,8.3,8.3,8.3h61.9c4.6,0,8.3-3.7,8.3-8.3
			C224.5,295.7,220.8,291.9,216.2,291.9z"/>
	</g>
</g>
<g>
	<g>
		<path class="st0" d="M180.8,256.6h-26.5c-4.6,0-8.3,3.7-8.3,8.3c0,4.6,3.7,8.3,8.3,8.3h26.5c4.6,0,8.3-3.7,8.3-8.3
			C189.1,260.3,185.4,256.6,180.8,256.6z"/>
	</g>
</g>
<g>
	<g>
		<path class="st0" d="M216.2,327.3h-61.9c-4.6,0-8.3,3.7-8.3,8.3c0,4.6,3.7,8.3,8.3,8.3h61.9c4.6,0,8.3-3.7,8.3-8.3
			C224.5,331,220.8,327.3,216.2,327.3z"/>
	</g>
</g>
<g>
	<g>
		<path class="st0" d="M172,389.3h-17.7c-4.6,0-8.3,3.7-8.3,8.3c0,4.6,3.7,8.3,8.3,8.3H172c4.6,0,8.3-3.7,8.3-8.3
			S176.5,389.3,172,389.3z"/>
	</g>
</g>
<g>
	<g>
		<path class="st0" d="M295.8,389.3h-17.7c-4.6,0-8.3,3.7-8.3,8.3c0,4.6,3.7,8.3,8.3,8.3h17.7c4.6,0,8.3-3.7,8.3-8.3
			S300.4,389.3,295.8,389.3z"/>
	</g>
</g>
<g>
	<g>
		<path class="st0" d="M233.9,389.3h-17.7c-4.6,0-8.3,3.7-8.3,8.3c0,4.6,3.7,8.3,8.3,8.3h17.7c4.6,0,8.3-3.7,8.3-8.3
			S238.5,389.3,233.9,389.3z"/>
	</g>
</g>
</svg>
