<?xml version="1.0" encoding="utf-8"?>
<!-- Generator: Adobe Illustrator 25.3.1, SVG Export Plug-In . SVG Version: 6.00 Build 0)  -->
<svg version="1.1" id="Capa_1" xmlns="http://www.w3.org/2000/svg" xmlns:xlink="http://www.w3.org/1999/xlink" x="0px" y="0px"
	 viewBox="0 0 512 512" style="enable-background:new 0 0 512 512;" xml:space="preserve">
<style type="text/css">
	.st0{fill:#1D1F26;}
</style>
<g>
	<path class="st0" d="M222.2,437h-60c-12.4,0-22.5,10.1-22.5,22.5s10.1,22.5,22.5,22.5h60c12.4,0,22.5-10.1,22.5-22.5
		S234.7,437,222.2,437z M222.2,467h-60c-4.1,0-7.5-3.4-7.5-7.5s3.4-7.5,7.5-7.5h60c4.1,0,7.5,3.4,7.5,7.5S226.4,467,222.2,467z"/>
	<path class="st0" d="M477.2,60h-120V37.5c0-20.7-16.8-37.5-37.5-37.5h-255C44.1,0,27.2,16.8,27.2,37.5v437
		c0,20.7,16.8,37.5,37.5,37.5h255c20.7,0,37.5-16.8,37.5-37.5V285h120c4.1,0,7.5-3.4,7.5-7.5v-210C484.8,63.4,481.4,60,477.2,60z
		 M169.8,270c0-7,3.3-13.7,8.9-17.9l92.1-70.2l26.3,20c6.7,5.1,14.7,7.6,22.7,7.6c8,0,16-2.5,22.7-7.6l26.3-20l92.1,70.2
		c5.6,4.2,8.9,10.9,8.9,17.9L169.8,270L169.8,270z M169.8,105l88.6,67.5L169.8,240V105z M381.2,172.5l88.6-67.5v135L381.2,172.5z
		 M460.9,92.9L333.4,190c-8,6.1-19.2,6.1-27.3,0L178.6,92.9c-5.5-4.2-8.8-10.9-8.9-17.8V75h300C469.7,82,466.4,88.7,460.9,92.9
		L460.9,92.9z M342.2,474.5c0,12.4-10.1,22.5-22.5,22.5h-255c-12.4,0-22.5-10.1-22.5-22.5v-437C42.2,25.1,52.3,15,64.7,15h255
		c12.4,0,22.5,10.1,22.5,22.5V60h-15V37.5c0-4.1-3.4-7.5-7.5-7.5h-255c-4.1,0-7.5,3.4-7.5,7.5v225c0,4.1,3.4,7.5,7.5,7.5
		s7.5-3.4,7.5-7.5V45h240v15h-150c-4.1,0-7.5,3.4-7.5,7.5v210c0,4.1,3.4,7.5,7.5,7.5h150v122h-240V292.5c0-4.1-3.4-7.5-7.5-7.5
		s-7.5,3.4-7.5,7.5v122c0,4.1,3.4,7.5,7.5,7.5h255c4.1,0,7.5-3.4,7.5-7.5V285h15V474.5z"/>
</g>
</svg>
