<svg height="512" viewBox="0 0 152 152" width="512" xmlns="http://www.w3.org/2000/svg"><g id="Layer_2" data-name="Layer 2"><g id="Color_Icon" data-name="Color Icon"><g id="_11.Pinterest" data-name="11.Pinterest"><rect id="Background" fill="#bd081c" height="152" rx="12" width="152"/><path id="Icon" d="m116 77.17a40 40 0 1 0 -57.46 34.83 1.13 1.13 0 0 0 1.62-1.06 30.1 30.1 0 0 1 .5-7.53c.51-2.17 2.49-10.59 3.8-16.12a19.76 19.76 0 0 0 .2-8.21 16.6 16.6 0 0 1 -.29-3.1c0-5.91 3.43-10.32 7.69-10.32 3.63 0 5.38 2.72 5.38 6 0 3.65-2.32 9.1-3.52 14.15a6.17 6.17 0 0 0 6.29 7.68c7.56 0 13.36-8 13.36-19.46 0-10.17-7.31-17.29-17.75-17.29-12.09 0-19.19 9.07-19.19 18.45a16.55 16.55 0 0 0 3.16 9.69 1.28 1.28 0 0 1 .3 1.22c-.32 1.34-1 4.23-1.18 4.82-.19.78-.62.94-1.42.57-5.31-2.49-8.63-10.28-8.63-16.49 0-13.41 9.74-25.72 28.08-25.72 14.74 0 26.2 10.51 26.2 24.55 0 14.64-9.24 26.43-22 26.43a12.56 12.56 0 0 1 -8.57-3.26 1.05 1.05 0 0 0 -1.77.48c-.67 2.54-1.75 6.66-2.1 8a37.22 37.22 0 0 1 -3.27 7.66 1.12 1.12 0 0 0 .72 1.63 40.1 40.1 0 0 0 10.23 1.23c21-.2 39-17.84 39.58-38.81z" fill="#fff"/></g></g></g></svg>